<?xml version="1.0" standalone="no"?>
<!DOCTYPE svg PUBLIC "-//W3C//DTD SVG 1.1//EN" "http://www.w3.org/Graphics/SVG/1.1/DTD/svg11.dtd" >
<svg>
<metadata>
Created by FontForge 20090622 at Fri Dec  7 02:49:18 2018
 By deploy user
(c) Copyright 2001 by Tom Truong. All Rights Reserved
</metadata>
<defs>
<font id="UVNHongHaHepBold" horiz-adv-x="1024" >
  <font-face 
    font-family="UVN Hong Ha Hep"
    font-weight="700"
    font-stretch="condensed"
    units-per-em="2048"
    panose-1="2 11 7 6 3 5 2 3 2 4"
    ascent="1638"
    descent="-410"
    x-height="1157"
    cap-height="1540"
    bbox="-342 -485 2220 2245"
    underline-thickness="162"
    underline-position="-114"
    unicode-range="U+0020-U+F002"
  />
<missing-glyph 
d="M128 0v2220h768v-2220h-768zM256 128h512v1964h-512v-1964z" />
    <glyph glyph-name=".notdef" 
d="M128 0v2220h768v-2220h-768zM256 128h512v1964h-512v-1964z" />
    <glyph glyph-name=".null" horiz-adv-x="0" 
 />
    <glyph glyph-name="nonmarkingreturn" horiz-adv-x="512" 
 />
    <glyph glyph-name="space" unicode=" " horiz-adv-x="512" 
 />
    <glyph glyph-name="exclam" unicode="!" horiz-adv-x="598" 
d="M211 403l-51 639v498h276v-498l-53 -639h-172zM166 0v279h262v-279h-262z" />
    <glyph glyph-name="quotedbl" unicode="&#x22;" horiz-adv-x="678" 
d="M406 1438h192v-559h-192v559zM80 1438h192v-559h-192v559z" />
    <glyph glyph-name="numbersign" unicode="#" horiz-adv-x="1575" 
d="M709 848l-88 -244h251l86 244h-249zM709 1464h221l-146 -415h242l148 415h221l-148 -415h283l-74 -201h-280l-84 -242h290l-71 -200h-291l-148 -416h-221l148 416h-244l-149 -416h-220l146 416h-287l76 200h282l86 242h-299l74 201h297z" />
    <glyph glyph-name="dollar" unicode="$" 
d="M455 973l-1 356q-120 -10 -120 -164q0 -112 121 -192zM446 -201v199q-372 22 -372 446v39h243q0 -8 -1 -23.5t-1 -23.5q0 -208 140 -233v454q-174 95 -256 188q-109 124 -109 290q0 171 93 275t263 112v137h113v-139q352 -4 352 -369v-29h-237v21q0 178 -123 184v-409
q197 -102 279 -188q116 -123 116 -304q0 -405 -387 -428v-199h-113zM551 203q137 25 137 182q0 136 -137 223v-405z" />
    <glyph glyph-name="percent" unicode="%" horiz-adv-x="1579" 
d="M1055 356q0 -109 11 -148q23 -83 103 -83q82 0 106 80q11 38 11 149q0 104 -14 148q-26 80 -107 80q-75 0 -98 -82q-12 -42 -12 -144zM852 360q0 186 62 274q74 103 251 103q182 0 258 -99q66 -87 66 -276t-66 -282q-78 -109 -258 -109q-181 0 -253 108q-60 89 -60 281z
M291 1169q0 -109 11 -148q24 -81 104 -81q82 0 105 80q11 38 11 149q0 104 -14 147q-26 79 -107 79q-75 0 -98 -82q-12 -42 -12 -144zM90 1176q0 186 62 273q73 101 251 101q182 0 256 -98q66 -85 66 -274q0 -190 -65 -283q-77 -111 -257 -111q-181 0 -253 110
q-60 90 -60 282zM360 -29l705 1579h149l-706 -1579h-148z" />
    <glyph glyph-name="ampersand" unicode="&#x26;" horiz-adv-x="1348" 
d="M623 1055q110 88 110 186q0 113 -98 113q-103 0 -103 -107q0 -25 23 -67zM782 285l-252 417q-141 -96 -141 -251q0 -96 53 -169q59 -81 152 -81t188 84zM942 0l-51 98q-125 -125 -332 -125t-325 128q-113 123 -113 333q0 152 84 272q64 92 209 201q-121 189 -121 322
q0 145 94 229q90 82 236 82q335 0 335 -293q0 -239 -219 -385l185 -317q37 103 37 243v25h235q-4 -319 -131 -504l182 -309h-305z" />
    <glyph glyph-name="quotesingle" unicode="'" horiz-adv-x="352" 
d="M80 1438h192v-559h-192v559z" />
    <glyph glyph-name="parenleft" unicode="(" horiz-adv-x="674" 
d="M446 -389q-305 439 -305 1026q0 528 299 940h166q-196 -335 -196 -991q0 -618 204 -975h-168z" />
    <glyph glyph-name="parenright" unicode=")" horiz-adv-x="674" 
d="M233 -389h-167q204 357 204 975q0 656 -196 991h166q299 -412 299 -940q0 -588 -306 -1026z" />
    <glyph glyph-name="asterisk" unicode="*" 
d="M512 1008l-145 -201l-150 108l143 201l-233 76l57 178l236 -78v248h184v-248l236 78l57 -178l-233 -76l143 -201l-150 -108z" />
    <glyph glyph-name="plus" unicode="+" horiz-adv-x="1706" 
d="M752 1221h202v-510h498v-199h-498v-512h-202v512h-498v199h498v510z" />
    <glyph glyph-name="comma" unicode="," horiz-adv-x="512" 
d="M127 -301v104q139 15 139 181v16h-139v276h258v-278q0 -124 -68 -206t-190 -93z" />
    <glyph glyph-name="hyphen" unicode="-" horiz-adv-x="672" 
d="M92 459v239h488v-239h-488z" />
    <glyph glyph-name="hyphen" unicode="&#x2010;" horiz-adv-x="672" 
d="M92 459v239h488v-239h-488z" />
    <glyph glyph-name="period" unicode="." horiz-adv-x="512" 
d="M127 0v276h258v-276h-258z" />
    <glyph glyph-name="slash" unicode="/" horiz-adv-x="629" 
d="M90 -190h-151l577 1767h152z" />
    <glyph glyph-name="zero" unicode="0" 
d="M649 1049q0 143 -11 185q-27 103 -126 103q-101 0 -127 -109q-10 -42 -10 -192v-565q0 -144 11 -186q26 -103 126 -103q101 0 127 111q10 42 10 192v564zM88 772q0 484 76 608q104 170 348 170t348 -170q76 -124 76 -608q0 -491 -72 -616q-107 -185 -352 -185t-352 185
q-72 125 -72 616z" />
    <glyph glyph-name="one" unicode="1" 
d="M432 0v1085h-340v182q382 12 420 283h190v-1550h-270z" />
    <glyph glyph-name="two" unicode="2" 
d="M88 0q0 8 -1 24.5t-1 24.5q0 355 295 658q22 23 80 78q80 76 106 109q53 63 72 132q14 52 14 119q0 192 -143 192q-148 0 -148 -243q0 -10 1 -30t1 -30h-268q0 9 -1 25.5t-1 25.5q0 233 94 344q102 121 330 121q424 0 424 -393q0 -173 -80 -307q-34 -57 -143 -167
l-89 -92l-1 -1q-210 -210 -250 -344h545v-246h-836z" />
    <glyph glyph-name="three" unicode="3" 
d="M84 518h268v-18q0 -138 18 -198q34 -112 138 -112q101 0 135 95q19 55 19 182q0 143 -33 192q-42 64 -174 64q-44 0 -80 -2v201h20q132 0 183 42q57 47 57 175q0 98 -20 141q-30 63 -115 63q-135 0 -135 -213v-36h-267q-2 20 -2 57q0 399 416 399q191 0 295 -103
t104 -294q0 -265 -178 -322q213 -53 213 -364q0 -496 -446 -496q-418 0 -418 486q0 10 1 30.5t1 30.5z" />
    <glyph glyph-name="four" unicode="4" 
d="M276 528h287v627zM557 0v305h-487v246l456 971h293v-987h129v-230h-129v-305h-262z" />
    <glyph glyph-name="five" unicode="5" 
d="M80 494h266v-41q0 -273 156 -273q151 0 151 344q0 316 -168 316q-130 0 -141 -125h-250l41 807h729v-246h-516l-16 -309q82 86 211 86q391 0 391 -510q0 -271 -84 -405q-104 -169 -356 -169q-414 0 -414 486v39z" />
    <glyph glyph-name="six" unicode="6" 
d="M371 506q0 -139 14 -196q31 -117 129 -117q101 0 128 114q11 46 11 195q0 151 -11 196q-27 113 -130 113q-97 0 -126 -114q-15 -56 -15 -191zM371 936q66 104 217 104q348 0 348 -487q0 -281 -73 -410q-98 -172 -353 -172q-236 0 -342 172q-78 127 -78 611q0 483 74 612
q105 184 368 184q169 0 266 -77q107 -84 107 -248v-23h-266v15q0 126 -121 126q-100 0 -133 -119q-16 -61 -16 -200q0 -15 1 -44t1 -44z" />
    <glyph glyph-name="seven" unicode="7" 
d="M272 0q21 272 111 574h-189v239h269q83 222 199 455h-578v254h852v-222q-125 -232 -210 -487h42v-239h-111q-68 -277 -90 -574h-295z" />
    <glyph glyph-name="eight" unicode="8" 
d="M387 1139q0 -95 18 -138q27 -67 107 -67q127 0 127 205q0 95 -20 139q-29 65 -111 65q-121 0 -121 -204zM512 731q-98 0 -126 -106q-13 -48 -13 -187q0 -115 17 -162q30 -83 122 -83q97 0 126 93q15 48 15 175q0 121 -17 174q-31 96 -124 96zM317 834q-194 59 -194 333
q0 381 391 381t391 -389q0 -262 -203 -325q136 -27 190 -140q42 -86 42 -243q0 -235 -93 -351q-102 -127 -331 -127q-222 0 -324 119q-94 111 -94 338q0 348 225 404z" />
    <glyph glyph-name="nine" unicode="9" 
d="M651 586q-64 -103 -221 -103q-346 0 -346 486q0 276 69 405q94 176 343 176q250 0 356 -172q78 -127 78 -610q0 -489 -72 -612q-108 -185 -352 -185q-391 0 -391 338v10h268v-16q0 -123 121 -123q102 0 133 122q14 57 14 204v80zM649 1020q0 142 -13 194
q-29 115 -128 115q-101 0 -128 -114q-11 -46 -11 -195q0 -155 10 -197q27 -112 131 -112q98 0 126 115q13 52 13 194z" />
    <glyph glyph-name="colon" unicode=":" horiz-adv-x="559" 
d="M152 862v277h256v-277h-256zM152 0v276h256v-276h-256z" />
    <glyph glyph-name="semicolon" unicode=";" horiz-adv-x="559" 
d="M152 -301v104q137 15 137 181v16h-137v276h256v-294q0 -110 -73.5 -193.5t-182.5 -89.5zM152 862v277h256v-277h-256z" />
    <glyph glyph-name="less" unicode="&#x3c;" horiz-adv-x="1706" 
d="M1442 1194v-219l-893 -365l893 -364v-219l-1178 485v199z" />
    <glyph glyph-name="equal" unicode="=" horiz-adv-x="1706" 
d="M254 496h1198v-199h-1198v199zM254 926h1198v-199h-1198v199z" />
    <glyph glyph-name="greater" unicode="&#x3e;" horiz-adv-x="1706" 
d="M264 1194l1178 -483v-199l-1178 -485v219l895 364l-895 365v219z" />
    <glyph glyph-name="question" unicode="?" horiz-adv-x="1006" 
d="M358 1126h-249v39q0 196 98 302q101 110 295 110q184 0 289.5 -104t105.5 -287q0 -139 -61 -238q-34 -55 -104 -137q-84 -99 -109 -133q-70 -96 -70 -227q0 -6 1 -18.5t1 -18.5h-241q-3 19 -3 71q0 199 119 351q16 21 52 62q134 155 134 300q0 164 -124 164
q-134 0 -134 -199v-37zM565 266v-266h-256v266h256z" />
    <glyph glyph-name="at" unicode="@" horiz-adv-x="2048" 
d="M1167 272q-107 -163 -297 -163q-323 0 -323 340q0 225 127 387q138 176 356 176q159 0 236 -131l53 98h178l-147 -598q-7 -28 -7 -41q0 -70 95 -70q80 0 161 76q175 165 175 422q0 261 -208 413q-186 136 -456 136q-282 0 -483 -135q-353 -238 -353 -660q0 -323 223 -505
q207 -169 537 -169q331 0 604 191l82 -117q-307 -231 -682 -231q-390 0 -639 192q-309 238 -309 637q0 341 207 594q301 367 819 367q349 0 576 -174q268 -206 268 -543q0 -339 -254 -543q-143 -115 -324 -115q-211 0 -215 166zM1217 700q-27 166 -175 166q-134 0 -215 -151
q-67 -125 -67 -271q0 -188 158 -188q90 0 160 71q62 63 85 156z" />
    <glyph glyph-name="A" unicode="A" horiz-adv-x="1120" 
d="M430 618h244l-123 646zM18 0l347 1540h385l350 -1540h-309l-76 387h-330l-74 -387h-293z" />
    <glyph glyph-name="B" unicode="B" horiz-adv-x="1116" 
d="M410 219h118q118 0 163 65q38 54 38 179q0 138 -47 190q-51 56 -186 56h-86v-490zM410 915h96q113 0 155 55q35 46 35 165q0 113 -42.5 154.5t-155.5 41.5h-88v-416zM131 0v1540h461q391 0 391 -375q0 -304 -190 -338q121 -17 180 -127q49 -91 49 -225q0 -233 -93 -348
q-102 -127 -329 -127h-469z" />
    <glyph glyph-name="C" unicode="C" horiz-adv-x="1122" 
d="M743 549h279q0 -10 1 -30t1 -30q0 -526 -457 -526q-212 0 -325 117q-101 105 -130 338q-12 101 -12 370q0 454 78 588q117 201 389 201q246 0 353 -137q95 -123 95 -377h-278v37q0 248 -164 248q-103 0 -148 -113q-33 -83 -35 -236q5 401 5 -206q0 -1327 -6 -215
q1 -165 34 -257q44 -124 148 -124q116 0 153 117q19 61 19 214v21z" />
    <glyph glyph-name="D" unicode="D" horiz-adv-x="1204" 
d="M412 227h127q156 0 198 62q74 110 74 499q0 386 -88 480q-44 47 -188 47h-123v-1088zM131 0v1540h461q258 0 362 -102q99 -97 130 -269q18 -99 18 -305q0 -260 -9 -355q-19 -211 -92 -339q-66 -116 -208 -150q-79 -20 -267 -20h-395z" />
    <glyph glyph-name="E" unicode="E" horiz-adv-x="1014" 
d="M131 0v1540h791v-256h-506v-356h471v-244h-471v-424h518v-260h-803z" />
    <glyph glyph-name="F" unicode="F" horiz-adv-x="1001" 
d="M131 0v1540h805v-252h-518v-364h489v-246h-489v-678h-287z" />
    <glyph glyph-name="G" unicode="G" horiz-adv-x="1206" 
d="M891 0l-21 170q-45 -115 -127 -163q-75 -44 -204 -44q-296 0 -389 304q-50 161 -50 550q0 431 97 578q119 180 405 180q247 0 365 -117t118 -364v-39h-268v16q0 279 -205 279q-122 0 -177 -118q-40 -89 -44 -253q4 168 4 -234q0 -252 14 -328q40 -218 189 -218
q132 0 180 113q31 73 31 229v53h-199v246h475v-840h-194z" />
    <glyph glyph-name="H" unicode="H" horiz-adv-x="1225" 
d="M131 0v1540h285v-604h393v604h285v-1540h-285v698h-393v-698h-285z" />
    <glyph glyph-name="I" unicode="I" horiz-adv-x="549" 
d="M131 0v1540h287v-1540h-287z" />
    <glyph glyph-name="J" unicode="J" horiz-adv-x="903" 
d="M25 487h262v-182q0 -121 100 -121q70 0 88 68q8 28 8 127v1161h281v-1083q0 -250 -29 -312q-85 -182 -350 -182q-360 0 -360 367v157z" />
    <glyph glyph-name="K" unicode="K" horiz-adv-x="1118" 
d="M131 0v1540h281v-643l350 643h319l-389 -639l414 -901h-315l-277 637l-102 -170v-467h-281z" />
    <glyph glyph-name="L" unicode="L" horiz-adv-x="999" 
d="M131 0v1540h287v-1278h518v-262h-805z" />
    <glyph glyph-name="M" unicode="M" horiz-adv-x="1548" 
d="M131 0v1540h432l211 -997l211 997h432v-1540h-274l6 1366l-287 -1366h-176l-287 1366l7 -1366h-275z" />
    <glyph glyph-name="N" unicode="N" horiz-adv-x="1221" 
d="M131 0v1540h295l401 -1077l-8 1077h271v-1540h-293l-404 1079l8 -1079h-270z" />
    <glyph glyph-name="O" unicode="O" horiz-adv-x="1202" 
d="M393 770q0 -301 -2 -222q4 -156 44 -242q52 -113 167 -113q114 0 165 114q39 85 43 242q-3 -109 -3 221q0 319 3 222q-5 157 -43 243q-52 115 -167 115t-167 -115q-38 -86 -43 -243q3 97 3 -222zM100 770q0 465 95 612q72 111 173 156q89 39 232 39t232 -39
q103 -46 174 -156q94 -145 94 -612q0 -465 -94 -612q-71 -110 -174 -156q-89 -39 -232 -39t-232 39q-101 45 -173 156q-95 147 -95 612z" />
    <glyph glyph-name="P" unicode="P" horiz-adv-x="1116" 
d="M408 866h120q131 0 186.5 51.5t55.5 180.5q0 132 -52 179.5t-186 47.5h-124v-459zM131 0v1540h498q229 0 328.5 -103t99.5 -333q0 -451 -432 -451h-209v-653h-285z" />
    <glyph glyph-name="Q" unicode="Q" horiz-adv-x="1202" 
d="M668 203l-84 86l143 145l61 -63q21 143 21 344q0 481 4 237q-3 174 -42 269q-52 129 -171 129q-115 0 -167 -115q-38 -86 -43 -243q3 97 3 -222q0 -304 -2 -215q4 -158 40 -245q49 -117 157 -117q27 0 80 10zM856 14q-102 -51 -256 -51q-143 0 -232 39q-102 45 -173 156
q-95 148 -95 612t95 612q71 111 173 156q89 39 232 39t232 -39q103 -46 174 -156q94 -147 94 -612q0 -493 -94 -612l172 -172l-146 -148z" />
    <glyph glyph-name="R" unicode="R" horiz-adv-x="1182" 
d="M408 889h165q126 0 174 51t48 178q0 123 -63 169q-54 38 -183 38h-141v-436zM131 0v1540h514q225 0 328 -88q110 -95 110 -315q0 -308 -217 -338q204 -54 213 -345v-20l8 -204q6 -158 78 -230h-340q-22 71 -26 240l-4 202q0 146 -73 195q-58 39 -216 39h-98v-676h-277z
" />
    <glyph glyph-name="S" unicode="S" horiz-adv-x="1122" 
d="M102 541h287v-99q0 -119 22 -168q34 -77 136 -77q186 0 186 182q0 82 -53 144q-33 38 -123 102l-147 104q-160 114 -212 178q-81 102 -81 256q0 198 118 307q115 107 314 107q216 0 329 -118t113 -335q0 -37 -2 -55h-272v41q0 112 -32 165q-41 68 -144 68
q-148 0 -148 -153q0 -97 177 -215l3 -2l158 -107q171 -116 229 -211q60 -100 60 -254q0 -215 -125 -329q-120 -109 -338 -109q-459 0 -459 486q0 6 2 34.5t2 51.5v6z" />
    <glyph glyph-name="T" unicode="T" horiz-adv-x="987" 
d="M350 0v1286h-330v254h947v-254h-330v-1286h-287z" />
    <glyph glyph-name="U" unicode="U" horiz-adv-x="1223" 
d="M131 1540h287v-1038q0 -150 27 -211q43 -94 171 -94t169 97q26 60 26 212v1034h283v-1063q0 -252 -76 -352q-124 -162 -406 -162q-270 0 -379 123q-102 115 -102 391v1063z" />
    <glyph glyph-name="V" unicode="V" horiz-adv-x="1120" 
d="M373 0l-346 1540h307l229 -1229l207 1229h303l-323 -1540h-377z" />
    <glyph glyph-name="W" unicode="W" horiz-adv-x="1677" 
d="M336 0l-299 1540h297l188 -1167l201 1167h238l221 -1190l164 1190h294l-280 -1540h-340l-178 973l-164 -973h-342z" />
    <glyph glyph-name="X" unicode="X" horiz-adv-x="1122" 
d="M18 0l377 786l-358 754h323l205 -485l209 485h320l-371 -754l381 -786h-324l-223 514l-227 -514h-312z" />
    <glyph glyph-name="Y" unicode="Y" horiz-adv-x="1126" 
d="M422 0v653l-404 887h318l233 -579l230 579h309l-397 -887v-653h-289z" />
    <glyph glyph-name="Z" unicode="Z" horiz-adv-x="991" 
d="M61 0v260l541 1040h-514v240h819v-237l-534 -1043h557v-260h-869z" />
    <glyph glyph-name="bracketleft" unicode="[" horiz-adv-x="672" 
d="M160 -418v1958h411v-170h-159v-1618h159v-170h-411z" />
    <glyph glyph-name="backslash" unicode="\" horiz-adv-x="629" 
d="M516 -190l-577 1767h151l578 -1767h-152z" />
    <glyph glyph-name="bracketright" unicode="]" horiz-adv-x="672" 
d="M489 1540v-1958h-411v170h162v1618h-162v170h411z" />
    <glyph glyph-name="asciicircum" unicode="^" horiz-adv-x="2048" 
d="M897 1460h252l481 -561h-235l-371 371l-373 -371h-235z" />
    <glyph glyph-name="underscore" unicode="_" 
d="M0 -279h1024v-204h-1024v204z" />
    <glyph glyph-name="grave" unicode="`" 
d="M653 1280h-125l-305 285h256z" />
    <glyph glyph-name="a" unicode="a" horiz-adv-x="993" 
d="M627 606q-123 -62 -172 -105q-86 -75 -86 -173q0 -150 118 -150q140 0 140 244v184zM664 0q-16 23 -29 112q-86 -143 -264 -143q-141 0 -215 100q-64 89 -64 236q0 159 87 252q64 70 233 145l54 24q157 67 157 157q0 114 -119 114q-142 0 -142 -161v-23h-260
q0 200 102 290q96 83 300 83q208 0 293 -79q88 -83 88 -288v-653q0 -94 39 -166h-260z" />
    <glyph glyph-name="b" unicode="b" horiz-adv-x="995" 
d="M516 963q-109 0 -134 -178q-5 -36 -5 -255q0 -169 9 -211q26 -129 130 -129q97 0 118 158q5 33 5 227q0 201 -4 229q-21 159 -119 159zM117 0v1540h268v-481q67 129 227 129q204 0 267 -224q32 -113 32 -391q0 -270 -35 -386q-66 -218 -270 -218q-170 0 -235 152v-121
h-254z" />
    <glyph glyph-name="c" unicode="c" horiz-adv-x="930" 
d="M846 454q2 -24 2 -65q0 -420 -375 -420q-252 0 -337 191q-54 122 -54 418t54 419q85 191 337 191q373 0 373 -389v-41h-256v26q0 197 -115 197q-117 0 -117 -195v-399q0 -96 14 -139q25 -74 101 -74q84 0 109 94q12 45 12 162v25z" />
    <glyph glyph-name="d" unicode="d" horiz-adv-x="995" 
d="M356 596q0 -210 3 -237q22 -169 120 -169q101 0 128 117q11 46 11 197q0 241 -3 268q-24 191 -136 191q-95 0 -118 -149q-5 -36 -5 -218zM625 121q-67 -152 -236 -152q-204 0 -270 218q-35 117 -35 386q0 277 32 390q64 225 267 225q162 0 227 -129v481h269v-1540h-254
v121z" />
    <glyph glyph-name="e" unicode="e" horiz-adv-x="975" 
d="M358 725h260v49q0 100 -18 142q-28 67 -113 67q-71 0 -101 -46q-36 -57 -30 -163l1 -16q1 -17 1 -33zM627 397h252q0 -8 1 -22.5t1 -22.5q0 -200 -96 -291.5t-298 -91.5q-209 0 -301 111q-73 88 -93 257q-9 74 -9 279q0 165 9 235q18 142 79 216q100 121 322 121
q214 0 313 -131q80 -106 80 -428v-88h-526q-3 -19 -3 -74q0 -129 14 -184q29 -113 120 -113q135 0 135 227z" />
    <glyph glyph-name="f" unicode="f" horiz-adv-x="563" 
d="M141 0v958h-104v199h104v115q0 143 52 205q57 69 196 69q53 0 129 -6v-201q-4 0 -13 1t-13 1q-82 0 -82 -77v-107h108v-199h-108v-958h-269z" />
    <glyph glyph-name="g" unicode="g" horiz-adv-x="995" 
d="M879 92q0 -250 -64 -344q-94 -137 -350 -137q-352 0 -356 262h265q6 -72 99 -72q88 0 118 69q19 44 19 148v80q-67 -129 -219 -129q-210 0 -274 221q-33 111 -33 394q0 269 35 386q66 218 270 218q170 0 236 -152v121h254v-1065zM479 967q-98 0 -120 -170q-3 -27 -3 -238
q0 -181 5 -216q23 -148 118 -148q112 0 136 190q3 27 3 268q0 151 -11 197q-27 117 -128 117z" />
    <glyph glyph-name="h" unicode="h" horiz-adv-x="993" 
d="M117 0v1540h266v-493q74 141 238 141q260 0 260 -279v-909h-258v776q0 88 -12 122q-22 60 -93 60q-86 0 -116 -73q-19 -45 -19 -148v-737h-266z" />
    <glyph glyph-name="i" unicode="i" horiz-adv-x="496" 
d="M115 1300v240h266v-240h-266zM115 0v1157h266v-1157h-266z" />
    <glyph glyph-name="j" unicode="j" horiz-adv-x="514" 
d="M133 1300v240h264v-240h-264zM37 -385v219q69 0 86 27q12 19 12 96v1200h262v-1204q0 -201 -38 -262q-52 -82 -234 -82q-40 0 -88 6z" />
    <glyph glyph-name="k" unicode="k" horiz-adv-x="885" 
d="M117 0v1540h260v-805l239 422h281l-289 -442l293 -715h-291l-168 463l-65 -103v-360h-260z" />
    <glyph glyph-name="l" unicode="l" horiz-adv-x="496" 
d="M115 0v1540h266v-1540h-266z" />
    <glyph glyph-name="m" unicode="m" horiz-adv-x="1538" 
d="M119 0v1157h248v-133q46 92 112 129q62 35 168 35q181 0 238 -146q99 146 266 146q276 0 276 -299v-889h-262v739q0 112 -14 149q-27 68 -117 68q-83 0 -111 -69q-18 -43 -18 -142v-745h-264v752q0 97 -16 138q-26 66 -107 66q-135 0 -135 -200v-756h-264z" />
    <glyph glyph-name="n" unicode="n" horiz-adv-x="993" 
d="M117 0v1157h262v-117q85 148 242 148q260 0 260 -279v-909h-258v776q0 185 -113 185q-125 0 -125 -224v-737h-268z" />
    <glyph glyph-name="o" unicode="o" horiz-adv-x="979" 
d="M356 563q0 -215 3 -234q21 -155 128 -155t131 133q5 29 5 217v113q0 176 -7 212q-24 132 -127 132q-100 0 -125 -116q-8 -37 -8 -195v-107zM82 578q0 299 59 424q88 186 348 186t349 -186q59 -124 59 -424t-59 -424q-89 -185 -349 -185t-348 186q-59 124 -59 423z" />
    <glyph glyph-name="p" unicode="p" horiz-adv-x="995" 
d="M377 627q0 -219 5 -255q25 -177 134 -177q98 0 119 159q4 27 4 228q0 194 -5 227q-21 158 -118 158q-104 0 -130 -129q-9 -42 -9 -211zM117 -389v1546h254v-121q64 152 235 152q204 0 270 -218q35 -116 35 -386q0 -278 -32 -391q-63 -224 -267 -224q-160 0 -227 129v-487
h-268z" />
    <glyph glyph-name="q" unicode="q" horiz-adv-x="995" 
d="M479 967q-98 0 -120 -170q-3 -27 -3 -238q0 -181 5 -216q23 -148 118 -148q112 0 136 190q3 27 3 268q0 151 -11 197q-27 117 -128 117zM610 98q-65 -129 -227 -129q-203 0 -267 225q-32 113 -32 390q0 269 35 386q66 218 270 218q170 0 236 -152v121h254v-1546h-269v487
z" />
    <glyph glyph-name="r" unicode="r" horiz-adv-x="692" 
d="M119 0v1157h256v-188q102 216 270 218v-325q-30 4 -67 4q-86 0 -136.5 -51t-50.5 -137v-678h-272z" />
    <glyph glyph-name="s" unicode="s" horiz-adv-x="901" 
d="M76 385h241v-33q0 -184 132 -184q120 0 120 113q0 66 -129 152l-51 34l-12 9q-295 221 -295 396q0 316 373 316q352 0 352 -361v-24h-236v24q0 162 -133 162q-110 0 -110 -100q0 -53 50 -102q22 -21 95 -70q17 -12 61 -41q291 -193 291 -385q0 -164 -110 -248
q-99 -74 -269 -74q-372 0 -372 371q0 8 1 22.5t1 22.5z" />
    <glyph glyph-name="t" unicode="t" horiz-adv-x="557" 
d="M399 350q0 -75 8 -98q16 -45 74 -45h15q9 1 14 1v-208q-97 -10 -143 -10q-145 0 -194 66q-42 55 -42 208v694h-104v199h104v316h268v-316h111v-199h-111v-608z" />
    <glyph glyph-name="u" unicode="u" horiz-adv-x="991" 
d="M877 1157v-1157h-263v115q-83 -146 -243 -146q-258 0 -258 279v909h258v-756q0 -93 14 -133q25 -69 100 -69q81 0 108 75q15 43 15 144v739h269z" />
    <glyph glyph-name="v" unicode="v" horiz-adv-x="909" 
d="M291 0l-268 1157h284l154 -885l147 885h277l-267 -1157h-327z" />
    <glyph glyph-name="w" unicode="w" horiz-adv-x="1341" 
d="M274 0l-247 1157h280l123 -856l131 856h219l156 -868l111 868h266l-223 -1157h-287l-131 688l-105 -688h-293z" />
    <glyph glyph-name="x" unicode="x" horiz-adv-x="895" 
d="M14 0l305 592l-292 565h305l125 -289l125 289h292l-286 -565l293 -592h-297l-133 309l-134 -309h-303z" />
    <glyph glyph-name="y" unicode="y" horiz-adv-x="909" 
d="M176 -379v200q7 0 21 -1h22q109 0 109 78q0 22 -11 66l-297 1193h283l160 -835l155 835h271l-301 -1266q-37 -155 -98 -213q-69 -65 -220 -65q-44 0 -94 8z" />
    <glyph glyph-name="z" unicode="z" horiz-adv-x="784" 
d="M43 0v213l391 719h-387v225h688v-194l-403 -736h407v-227h-696z" />
    <glyph glyph-name="braceleft" unicode="{" 
d="M883 1477v-209q-8 0 -23.5 1t-23.5 1q-108 0 -143 -47q-29 -40 -29 -154v-240q0 -137 -38 -198q-44 -72 -169 -101q125 -29 169 -100q38 -60 38 -197v-241q0 -114 29 -153q35 -46 143 -46q8 0 23.5 1t23.5 1v-209q-13 0 -38 -1t-38 -1q-195 0 -281 49q-70 39 -91 128
q-13 51 -13 163v252q0 130 -46 188q-51 64 -177 64q-7 0 -20.5 -1t-20.5 -1v209q7 0 20.5 -1t20.5 -1q126 0 177 66q46 58 46 188v250q0 113 13 164q21 90 91 129q86 49 281 49q13 0 38 -1t38 -1z" />
    <glyph glyph-name="bar" unicode="|" 
d="M410 1565h206v-2048h-206v2048z" />
    <glyph glyph-name="braceright" unicode="}" 
d="M143 1477h68q201 0 289 -50q69 -39 91 -127q13 -51 13 -163v-252q0 -130 46 -188q51 -64 177 -64q7 0 20.5 1t20.5 1v-209h-37q-129 0 -180 -62q-47 -56 -47 -188v-252q0 -113 -12 -163q-22 -90 -92 -128q-89 -49 -281 -49q-13 0 -38 1t-38 1v209q8 0 23.5 -1t23.5 -1
q107 0 142 47q30 39 30 152v239q0 138 37 199q45 72 170 100q-125 29 -169 101q-38 61 -38 198v242q0 113 -30 152q-35 47 -142 47q-8 0 -23.5 -1t-23.5 -1v209z" />
    <glyph glyph-name="asciitilde" unicode="~" horiz-adv-x="1706" 
d="M1530 803v-221q-202 -138 -379 -138q-90 0 -184 31l-71 25q-217 75 -333 75q-165 0 -385 -157v221q213 143 387 143q59 0 291 -58l4 -1q5 -1 55 -19q155 -55 240 -55q163 0 375 154z" />
    <glyph glyph-name="exclamdown" unicode="&#xa1;" horiz-adv-x="598" 
d="M383 1139l51 -639v-500h-274v500l51 639h172zM428 1540v-276h-262v276h262z" />
    <glyph glyph-name="cent" unicode="&#xa2;" 
d="M426 -328v328q-197 25 -254 236q-27 101 -27 382q0 275 27 370q57 196 254 222v279h182v-279q260 -34 260 -368q0 -40 -2 -62h-256v49q0 86 -9 116q-18 61 -83 61q-79 0 -97 -108q-5 -26 -5 -167v-258q0 -131 5 -161q18 -105 93 -105q71 0 90 88q8 34 8 143v43h252
q0 -10 1 -28.5t1 -28.5q0 -402 -258 -424v-328h-182z" />
    <glyph glyph-name="sterling" unicode="&#xa3;" 
d="M147 -29l-75 193q207 143 207 344q0 64 -17 145h-190v142h127q-95 154 -95 342q0 193 121 305q117 108 312 108q419 0 419 -407q0 -42 -2 -66h-256v37q0 227 -161 227q-160 0 -160 -215q0 -149 94 -331h291v-142h-242q12 -42 12 -86q0 -192 -225 -379q106 60 199 60
q43 0 127 -19.5t127 -19.5q73 0 168 63l59 -223q-103 -74 -244 -74q-64 0 -189.5 30t-184.5 30q-94 0 -222 -64z" />
    <glyph glyph-name="currency" unicode="&#xa4;" 
d="M670 459h286v-31q0 -465 -413 -465q-431 0 -435 594h-128l63 141h66v144h-154l63 141h90q4 594 435 594q411 0 413 -471h-286v12q0 248 -140 248q-97 0 -124 -157q-11 -61 -11 -226h383l-63 -141h-320v-144h256l-63 -141h-192q1 -175 11 -229q28 -154 130 -154
q133 0 133 258v27z" />
    <glyph glyph-name="yen" unicode="&#xa5;" horiz-adv-x="1139" 
d="M1104 1522l-215 -467h203v-144h-267l-65 -141h332v-143h-385v-627h-269v627h-389v143h334l-64 141h-270v144h203l-219 467h284l258 -594l252 594h277z" />
    <glyph glyph-name="brokenbar" unicode="&#xa6;" 
d="M410 408h206v-758h-206v758zM410 1432h206v-758h-206v758z" />
    <glyph glyph-name="section" unicode="&#xa7;" 
d="M635 500q74 43 74 118q0 59 -88 123l-224 164q-82 -42 -82 -102q0 -78 234 -242q4 -3 86 -61zM119 164h254q0 -5 -1 -15.5t-1 -15.5q0 -135 135 -135q129 0 129 115q0 37 -21 68q-19 26 -100 87l-248 187q-98 74 -136 128q-52 74 -52 175q0 202 190 256q-116 81 -116 237
q0 168 113 252q100 74 274 74q360 0 360 -315q0 -6 -1 -16.5t-1 -16.5h-250v14q0 133 -119 133q-118 0 -118 -96q0 -85 135 -179l22 -16l150 -106q119 -84 162 -138q67 -83 67 -196q0 -196 -188 -248q129 -75 129 -291q0 -319 -398 -319q-372 0 -372 334q0 7 1 21.5t1 21.5z
" />
    <glyph glyph-name="dieresis" unicode="&#xa8;" 
d="M573 1303v237h220v-237h-220zM231 1303v237h220v-237h-220z" />
    <glyph glyph-name="copyright" unicode="&#xa9;" horiz-adv-x="1706" 
d="M1212 897h-188q-17 147 -172 147q-107 0 -157 -108q-38 -80 -38 -201q0 -301 203 -301q151 0 170 161l193 1q-8 -147 -117 -230q-101 -77 -252 -77q-193 0 -300 125q-101 118 -101 315t101 320q109 131 302 131q142 0 240 -70q108 -77 116 -213zM854 1356
q-260 0 -438 -180q-183 -185 -183 -441q0 -255 182.5 -437.5t438.5 -182.5q255 0 442 184q179 176 179 436q0 258 -181.5 439.5t-439.5 181.5zM852 1479q311 0 530 -219q215 -215 215 -527q0 -310 -215 -520q-228 -223 -530 -223q-300 0 -522 221q-219 218 -219 522
q0 307 219 529q214 217 522 217z" />
    <glyph glyph-name="ordfeminine" unicode="&#xaa;" horiz-adv-x="745" 
d="M471 1155q-92 -44 -128 -72q-67 -53 -67 -122q0 -105 91 -105q104 0 104 170v129zM497 732q-11 17 -20 79q-64 -100 -198 -100q-209 0 -209 233q0 114 67 180q48 48 172 99q4 2 40 16q118 47 118 111q0 80 -88 80q-107 0 -107 -113v-17h-194q0 144 80 206q71 55 221 55
q151 0 215 -52q70 -57 70 -204v-457q0 -63 28 -117z" />
    <glyph glyph-name="guillemotleft" unicode="&#xab;" horiz-adv-x="989" 
d="M852 965v-222l-193 -163l193 -166v-221l-313 282v207zM451 965v-222l-193 -163l193 -166v-221l-314 282v207z" />
    <glyph glyph-name="logicalnot" unicode="&#xac;" horiz-adv-x="1706" 
d="M254 864h1198v-502h-199v306h-999v196z" />
    <glyph glyph-name="registered" unicode="&#xae;" horiz-adv-x="1706" 
d="M745 1034v-239h99q170 0 170 116q0 123 -180 123h-89zM545 1161h323q353 0 353 -237q0 -174 -181 -219l185 -369h-224l-157 338h-99v-338h-200v825zM854 1356q-256 0 -432 -176q-189 -189 -189 -445q0 -253 179 -434q186 -188 440 -188q250 0 440 182q183 175 183 428
q0 265 -177 446q-183 187 -444 187zM852 1479q313 0 534 -224q211 -214 211 -522q0 -313 -219 -526q-223 -217 -526 -217q-306 0 -528 225q-213 216 -213 518q0 204 108 387q101 171 267.5 265t365.5 94z" />
    <glyph glyph-name="degree" unicode="&#xb0;" horiz-adv-x="674" 
d="M338 1335q-73 0 -124.5 -50.5t-51.5 -123.5q0 -74 51 -125t125 -51q72 0 123 51.5t51 124.5q0 72 -51 123t-123 51zM338 1464q127 0 215 -89t88 -216t-89 -215t-216 -88t-214 88t-87 215t88 216t215 89z" />
    <glyph glyph-name="plusminus" unicode="&#xb1;" horiz-adv-x="1706" 
d="M254 197h1198v-199h-1198v199zM752 1223h202v-326h498v-199h-498v-325h-202v325h-498v199h498v326z" />
    <glyph glyph-name="twosuperior" unicode="&#xb2;" horiz-adv-x="676" 
d="M57 608v29q0 214 195 395q53 44 139 133q41 55 41 129q0 117 -96 117t-96 -147v-35h-177q0 5 -1 15.5t-1 15.5q0 278 281 278t281 -235q0 -103 -54 -185q-23 -34 -100 -106l-53 -49q-66 -66 -93 -96q-57 -65 -73 -111h360v-148h-553z" />
    <glyph glyph-name="threesuperior" unicode="&#xb3;" horiz-adv-x="676" 
d="M55 920h178v-13q0 -84 13 -121q23 -63 90 -63q66 0 87 54q13 33 13 112q0 88 -24 118q-27 35 -111 35h-27q-17 -1 -26 -1v120h12q85 0 118 23q42 29 42 108q0 123 -90 123t-90 -129v-22h-174q-3 10 -3 34q0 240 275 240q264 0 264 -238q0 -161 -119 -192
q142 -34 142 -219q0 -297 -295 -297q-277 0 -277 291q0 6 1 18.5t1 18.5z" />
    <glyph glyph-name="acute" unicode="&#xb4;" 
d="M371 1280l174 285h256l-305 -285h-125z" />
    <glyph glyph-name="paragraph" unicode="&#xb6;" 
d="M983 1479v-111h-113v-1368h-151v1368h-158v-1368h-153v784q-160 6 -261 95q-106 94 -106 251q0 166 115 261q107 88 276 88h551z" />
    <glyph glyph-name="cedilla" unicode="&#xb8;" 
d="M272 -319q160 -27 213 -27q86 0 86 72q0 61 -104 61h-23v213h115v-83q201 -18 201 -193q0 -209 -254 -209q-85 0 -234 28v138z" />
    <glyph glyph-name="onesuperior" unicode="&#xb9;" horiz-adv-x="676" 
d="M285 608v652h-226l1 108q254 6 278 170h125v-930h-178z" />
    <glyph glyph-name="ordmasculine" unicode="&#xba;" horiz-adv-x="735" 
d="M268 1126q0 -154 2 -167q16 -105 97 -105q79 0 96 91q4 21 4 153v80q0 124 -5 150q-18 89 -95 89q-74 0 -93 -78q-6 -26 -6 -139v-74zM61 1135q0 214 48 303q66 125 258 125q191 0 259 -125q48 -89 48 -303t-48 -302q-67 -122 -259 -122t-258 122q-48 88 -48 302z" />
    <glyph glyph-name="guillemotright" unicode="&#xbb;" horiz-adv-x="989" 
d="M539 965l313 -283v-207l-313 -282v221l192 166l-192 163v222zM137 965l314 -283v-207l-314 -282v221l193 166l-193 163v222z" />
    <glyph glyph-name="onequarter" unicode="&#xbc;" horiz-adv-x="1632" 
d="M1161 295h180v352zM1337 0v170h-307v139l289 543h184v-553h82v-129h-82v-170h-166zM457 -29h-154l868 1579h156zM272 670v608h-215v102q241 4 267 158h118v-868h-170z" />
    <glyph glyph-name="onehalf" unicode="&#xbd;" horiz-adv-x="1632" 
d="M1042 0q0 5 -1 13.5t-1 13.5q0 196 187 368l52 46q49 41 66 59q33 36 45 75q9 29 9 66q0 109 -90 109q-92 0 -92 -138v-32h-168q0 5 -1 14t-1 14q0 260 266 260q268 0 268 -221q0 -93 -51 -172q-18 -28 -89 -91q-22 -19 -57 -52l-11 -12q-76 -83 -99 -111
q-39 -47 -47 -72h342v-137h-527zM457 -29h-154l868 1579h156zM272 670v608h-215v102q241 4 267 158h118v-868h-170z" />
    <glyph glyph-name="threequarters" unicode="&#xbe;" horiz-adv-x="1632" 
d="M1161 295h180v352zM1337 0v170h-307v139l289 543h184v-553h82v-129h-82v-170h-166zM457 -29h-154l868 1579h156zM53 961h168v-11q0 -174 98 -174q63 0 84 50q13 31 13 106q0 82 -23 111q-27 32 -106 32q-29 0 -51 -2v113h14q78 0 110 21q39 27 39 100q0 114 -84 114
q-86 0 -86 -118v-21h-168v33q0 223 263 223q249 0 249 -223q0 -149 -110 -180q133 -32 133 -203q0 -279 -281 -279q-264 0 -264 273q0 6 1 17.5t1 17.5z" />
    <glyph glyph-name="questiondown" unicode="&#xbf;" horiz-adv-x="1006" 
d="M645 414h252v-39q0 -195 -99 -301q-103 -109 -296 -109q-184 0 -290 103.5t-106 287.5q0 137 62 236q35 55 105 138q84 99 110 134q70 96 70 228q0 6 -1 18t-1 18h241q2 -24 2 -69q0 -197 -121 -354q-21 -28 -52 -63q-134 -155 -134 -300q0 -164 125 -164q133 0 133 199
v37zM438 1274v266h256v-266h-256z" />
    <glyph glyph-name="Agrave" unicode="&#xc0;" horiz-adv-x="1120" 
d="M430 618h244l-123 646zM18 0l347 1540h385l350 -1540h-309l-76 387h-330l-74 -387h-293zM702 1669h-125l-305 285h256z" />
    <glyph glyph-name="Aacute" unicode="&#xc1;" horiz-adv-x="1120" 
d="M430 618h244l-123 646zM18 0l347 1540h385l350 -1540h-309l-76 387h-330l-74 -387h-293zM420 1669l174 285h256l-305 -285h-125z" />
    <glyph glyph-name="Acircumflex" unicode="&#xc2;" horiz-adv-x="1120" 
d="M430 618h244l-123 646zM18 0l347 1540h385l350 -1540h-309l-76 387h-330l-74 -387h-293zM285 1618l174 285h204l174 -285h-124l-152 150l-152 -150h-124z" />
    <glyph glyph-name="Atilde" unicode="&#xc3;" horiz-adv-x="1120" 
d="M430 618h244l-123 646zM18 0l347 1540h385l350 -1540h-309l-76 387h-330l-74 -387h-293zM368 1681h-88q40 232 179 232q34 0 61 -8l110 -33q20 -6 48 -6q60 0 76 75h88q-36 -237 -187 -237q-23 0 -51 8l-121 35q-21 6 -33 6q-66 0 -82 -72z" />
    <glyph glyph-name="Adieresis" unicode="&#xc4;" horiz-adv-x="1120" 
d="M430 618h244l-123 646zM18 0l347 1540h385l350 -1540h-309l-76 387h-330l-74 -387h-293zM622 1692v237h220v-237h-220zM280 1692v237h220v-237h-220z" />
    <glyph glyph-name="Aring" unicode="&#xc5;" horiz-adv-x="1120" 
d="M475 1772q0 -33 24.5 -56.5t57.5 -23.5q34 0 56 23t22 57q0 77 -78 77q-33 0 -57.5 -22t-24.5 -55zM356 1772q0 83 59 141.5t142 58.5q84 0 141.5 -58t57.5 -142t-57.5 -142.5t-141.5 -58.5t-142.5 58.5t-58.5 142.5zM430 618h244l-123 646zM18 0l347 1518h385l350 -1518
h-309l-76 387h-330l-74 -387h-293z" />
    <glyph glyph-name="AE" unicode="&#xc6;" horiz-adv-x="1567" 
d="M465 612h252v672h-37zM-45 0l584 1540h946v-256h-494v-358h461v-240h-461v-428h498v-258h-772v393h-326l-131 -393h-305z" />
    <glyph glyph-name="Ccedilla" unicode="&#xc7;" horiz-adv-x="1122" 
d="M743 549h279q0 -10 1 -30t1 -30q0 -526 -457 -526q-212 0 -325 117q-101 105 -130 338q-12 101 -12 370q0 454 78 588q117 201 389 201q246 0 353 -137q95 -123 95 -377h-278v37q0 248 -164 248q-103 0 -148 -113q-33 -83 -35 -236q5 401 5 -206q0 -1327 -6 -215
q1 -165 34 -257q44 -124 148 -124q116 0 153 117q19 61 19 214v21zM321 -319q160 -27 213 -27q86 0 86 72q0 61 -104 61h-23v213h115v-83q201 -18 201 -193q0 -209 -254 -209q-85 0 -234 28v138z" />
    <glyph glyph-name="Egrave" unicode="&#xc8;" horiz-adv-x="1014" 
d="M131 0v1540h791v-256h-506v-356h471v-244h-471v-424h518v-260h-803zM659 1669h-125l-305 285h256z" />
    <glyph glyph-name="Eacute" unicode="&#xc9;" horiz-adv-x="1014" 
d="M131 0v1540h791v-256h-506v-356h471v-244h-471v-424h518v-260h-803zM377 1669l174 285h256l-305 -285h-125z" />
    <glyph glyph-name="Ecircumflex" unicode="&#xca;" horiz-adv-x="1014" 
d="M131 0v1540h791v-256h-506v-356h471v-244h-471v-424h518v-260h-803zM243 1618l174 285h204l174 -285h-124l-152 150l-152 -150h-124z" />
    <glyph glyph-name="Edieresis" unicode="&#xcb;" horiz-adv-x="1014" 
d="M131 0v1540h791v-256h-506v-356h471v-244h-471v-424h518v-260h-803zM579 1692v237h220v-237h-220zM237 1692v237h220v-237h-220z" />
    <glyph glyph-name="Igrave" unicode="&#xcc;" horiz-adv-x="549" 
d="M131 0v1540h287v-1540h-287zM415 1669h-125l-305 285h256z" />
    <glyph glyph-name="Iacute" unicode="&#xcd;" horiz-adv-x="549" 
d="M131 0v1540h287v-1540h-287zM133 1669l174 285h256l-305 -285h-125z" />
    <glyph glyph-name="Icircumflex" unicode="&#xce;" horiz-adv-x="549" 
d="M131 0v1540h287v-1540h-287zM-2 1669l174 285h204l174 -285h-124l-152 150l-152 -150h-124z" />
    <glyph glyph-name="Idieresis" unicode="&#xcf;" horiz-adv-x="549" 
d="M131 0v1540h287v-1540h-287zM335 1692v237h220v-237h-220zM-7 1692v237h220v-237h-220z" />
    <glyph glyph-name="Eth" unicode="&#xd0;" horiz-adv-x="1208" 
d="M135 0v715h-143v205h143v620h461q258 0 362 -102q99 -98 131 -269q19 -101 19 -305q0 -252 -10 -355q-20 -213 -92 -339q-65 -115 -209 -150q-80 -20 -267 -20h-395zM416 227h129q154 0 196 62q74 110 74 499q0 176 -8 249q-18 165 -78 231q-43 47 -188 47h-125v-395h231
v-205h-231v-488z" />
    <glyph glyph-name="Ntilde" unicode="&#xd1;" horiz-adv-x="1221" 
d="M131 0v1540h295l401 -1077l-8 1077h271v-1540h-293l-404 1079l8 -1079h-270zM417 1681h-88q40 232 179 232q34 0 61 -8l110 -33q20 -6 48 -6q60 0 76 75h88q-36 -237 -187 -237q-23 0 -51 8l-121 35q-21 6 -33 6q-66 0 -82 -72z" />
    <glyph glyph-name="Ograve" unicode="&#xd2;" horiz-adv-x="1202" 
d="M393 770q0 -301 -2 -222q4 -156 44 -242q52 -113 167 -113q114 0 165 114q39 85 43 242q-3 -109 -3 221q0 319 3 222q-5 157 -43 243q-52 115 -167 115t-167 -115q-38 -86 -43 -243q3 97 3 -222zM100 770q0 465 95 612q72 111 173 156q89 39 232 39t232 -39
q103 -46 174 -156q94 -145 94 -612q0 -465 -94 -612q-71 -110 -174 -156q-89 -39 -232 -39t-232 39q-101 45 -173 156q-95 147 -95 612zM743 1669h-125l-305 285h256z" />
    <glyph glyph-name="Oacute" unicode="&#xd3;" horiz-adv-x="1202" 
d="M393 770q0 -301 -2 -222q4 -156 44 -242q52 -113 167 -113q114 0 165 114q39 85 43 242q-3 -109 -3 221q0 319 3 222q-5 157 -43 243q-52 115 -167 115t-167 -115q-38 -86 -43 -243q3 97 3 -222zM100 770q0 465 95 612q72 111 173 156q89 39 232 39t232 -39
q103 -46 174 -156q94 -145 94 -612q0 -465 -94 -612q-71 -110 -174 -156q-89 -39 -232 -39t-232 39q-101 45 -173 156q-95 147 -95 612zM461 1669l174 285h256l-305 -285h-125z" />
    <glyph glyph-name="Ocircumflex" unicode="&#xd4;" horiz-adv-x="1202" 
d="M393 770q0 -301 -2 -222q4 -156 44 -242q52 -113 167 -113q114 0 165 114q39 85 43 242q-3 -109 -3 221q0 319 3 222q-5 157 -43 243q-52 115 -167 115t-167 -115q-38 -86 -43 -243q3 97 3 -222zM100 770q0 465 95 612q72 111 173 156q89 39 232 39t232 -39
q103 -46 174 -156q94 -145 94 -612q0 -465 -94 -612q-71 -110 -174 -156q-89 -39 -232 -39t-232 39q-101 45 -173 156q-95 147 -95 612zM326 1618l174 285h204l174 -285h-124l-152 150l-152 -150h-124z" />
    <glyph glyph-name="Otilde" unicode="&#xd5;" horiz-adv-x="1202" 
d="M393 770q0 -301 -2 -222q4 -156 44 -242q52 -113 167 -113q114 0 165 114q39 85 43 242q-3 -109 -3 221q0 319 3 222q-5 157 -43 243q-52 115 -167 115t-167 -115q-38 -86 -43 -243q3 97 3 -222zM100 770q0 465 95 612q72 111 173 156q89 39 232 39t232 -39
q103 -46 174 -156q94 -145 94 -612q0 -465 -94 -612q-71 -110 -174 -156q-89 -39 -232 -39t-232 39q-101 45 -173 156q-95 147 -95 612zM409 1681h-88q40 232 179 232q34 0 61 -8l110 -33q20 -6 48 -6q60 0 76 75h88q-36 -237 -187 -237q-23 0 -51 8l-121 35q-21 6 -33 6
q-66 0 -82 -72z" />
    <glyph glyph-name="Odieresis" unicode="&#xd6;" horiz-adv-x="1202" 
d="M393 770q0 -301 -2 -222q4 -156 44 -242q52 -113 167 -113q114 0 165 114q39 85 43 242q-3 -109 -3 221q0 319 3 222q-5 157 -43 243q-52 115 -167 115t-167 -115q-38 -86 -43 -243q3 97 3 -222zM100 770q0 465 95 612q72 111 173 156q89 39 232 39t232 -39
q103 -46 174 -156q94 -145 94 -612q0 -465 -94 -612q-71 -110 -174 -156q-89 -39 -232 -39t-232 39q-101 45 -173 156q-95 147 -95 612zM663 1692v237h220v-237h-220zM321 1692v237h220v-237h-220z" />
    <glyph glyph-name="multiply" unicode="&#xd7;" horiz-adv-x="1706" 
d="M416 1202l450 -450l451 450l141 -139l-450 -453l450 -450l-141 -140l-451 451l-450 -451l-140 140l451 450l-451 453z" />
    <glyph glyph-name="Oslash" unicode="&#xd8;" horiz-adv-x="1202" 
d="M397 551l389 627q-14 172 -180 172q-121 0 -175 -124q-39 -93 -43 -262q5 245 5 -237q0 -30 1 -66zM805 961l-385 -623q21 -145 168 -145q166 0 208 198q13 65 13 330q0 154 -4 240zM170 207q-70 177 -70 565q0 476 99 623q122 182 397 182q231 0 352 -119l82 137
l131 -84l-117 -194q60 -190 60 -580q0 -445 -109 -604q-69 -101 -174 -139q-83 -31 -225 -31q-216 0 -330 103l-100 -160l-129 82z" />
    <glyph glyph-name="Ugrave" unicode="&#xd9;" horiz-adv-x="1223" 
d="M131 1540h287v-1038q0 -150 27 -211q43 -94 171 -94t169 97q26 60 26 212v1034h283v-1063q0 -252 -76 -352q-124 -162 -406 -162q-270 0 -379 123q-102 115 -102 391v1063zM753 1669h-125l-305 285h256z" />
    <glyph glyph-name="Uacute" unicode="&#xda;" horiz-adv-x="1223" 
d="M131 1540h287v-1038q0 -150 27 -211q43 -94 171 -94t169 97q26 60 26 212v1034h283v-1063q0 -252 -76 -352q-124 -162 -406 -162q-270 0 -379 123q-102 115 -102 391v1063zM471 1669l174 285h256l-305 -285h-125z" />
    <glyph glyph-name="Ucircumflex" unicode="&#xdb;" horiz-adv-x="1223" 
d="M131 1540h287v-1038q0 -150 27 -211q43 -94 171 -94t169 97q26 60 26 212v1034h283v-1063q0 -252 -76 -352q-124 -162 -406 -162q-270 0 -379 123q-102 115 -102 391v1063zM336 1669l174 285h204l174 -285h-124l-152 150l-152 -150h-124z" />
    <glyph glyph-name="Udieresis" unicode="&#xdc;" horiz-adv-x="1223" 
d="M131 1540h287v-1038q0 -150 27 -211q43 -94 171 -94t169 97q26 60 26 212v1034h283v-1063q0 -252 -76 -352q-124 -162 -406 -162q-270 0 -379 123q-102 115 -102 391v1063zM673 1692v237h220v-237h-220zM331 1692v237h220v-237h-220z" />
    <glyph glyph-name="Yacute" unicode="&#xdd;" horiz-adv-x="1126" 
d="M422 0v653l-404 887h318l233 -579l230 579h309l-397 -887v-653h-289zM422 1669l174 285h256l-305 -285h-125z" />
    <glyph glyph-name="Thorn" unicode="&#xde;" horiz-adv-x="1116" 
d="M408 1047v-457h120q131 0 186.5 50t55.5 179q0 132 -52 180t-186 48h-124zM131 1540h285v-276h213q225 0 326.5 -101.5t101.5 -326.5q0 -459 -432 -459h-209v-377h-285v1540z" />
    <glyph glyph-name="germandbls" unicode="&#xdf;" horiz-adv-x="995" 
d="M117 0v1090q0 224 71 329q86 127 297 127q385 0 385 -370q0 -231 -143 -295q178 -80 178 -428q0 -467 -297 -467q-83 0 -133 27v199q42 -19 64 -19q74 0 94 115q6 38 6 169q0 138 -13 187q-28 110 -124 110h-15l1 184q8 -2 22 -2q104 0 104 191q0 196 -120 196
q-76 0 -102 -70q-15 -42 -15 -136v-1137h-260z" />
    <glyph glyph-name="agrave" unicode="&#xe0;" horiz-adv-x="993" 
d="M627 606q-123 -62 -172 -105q-86 -75 -86 -173q0 -150 118 -150q140 0 140 244v184zM664 0q-16 23 -29 112q-86 -143 -264 -143q-141 0 -215 100q-64 89 -64 236q0 159 87 252q64 70 233 145l54 24q157 67 157 157q0 114 -119 114q-142 0 -142 -161v-23h-260
q0 200 102 290q96 83 300 83q208 0 293 -79q88 -83 88 -288v-653q0 -94 39 -166h-260zM639 1280h-125l-305 285h256z" />
    <glyph glyph-name="aacute" unicode="&#xe1;" horiz-adv-x="993" 
d="M627 606q-123 -62 -172 -105q-86 -75 -86 -173q0 -150 118 -150q140 0 140 244v184zM664 0q-16 23 -29 112q-86 -143 -264 -143q-141 0 -215 100q-64 89 -64 236q0 159 87 252q64 70 233 145l54 24q157 67 157 157q0 114 -119 114q-142 0 -142 -161v-23h-260
q0 200 102 290q96 83 300 83q208 0 293 -79q88 -83 88 -288v-653q0 -94 39 -166h-260zM357 1280l174 285h256l-305 -285h-125z" />
    <glyph glyph-name="acircumflex" unicode="&#xe2;" horiz-adv-x="993" 
d="M627 606q-123 -62 -172 -105q-86 -75 -86 -173q0 -150 118 -150q140 0 140 244v184zM664 0q-16 23 -29 112q-86 -143 -264 -143q-141 0 -215 100q-64 89 -64 236q0 159 87 252q64 70 233 145l54 24q157 67 157 157q0 114 -119 114q-142 0 -142 -161v-23h-260
q0 200 102 290q96 83 300 83q208 0 293 -79q88 -83 88 -288v-653q0 -94 39 -166h-260zM222 1280l174 285h204l174 -285h-124l-152 150l-152 -150h-124z" />
    <glyph glyph-name="atilde" unicode="&#xe3;" horiz-adv-x="993" 
d="M627 606q-123 -62 -172 -105q-86 -75 -86 -173q0 -150 118 -150q140 0 140 244v184zM664 0q-16 23 -29 112q-86 -143 -264 -143q-141 0 -215 100q-64 89 -64 236q0 159 87 252q64 70 233 145l54 24q157 67 157 157q0 114 -119 114q-142 0 -142 -161v-23h-260
q0 200 102 290q96 83 300 83q208 0 293 -79q88 -83 88 -288v-653q0 -94 39 -166h-260zM305 1292h-88q40 232 179 232q34 0 61 -8l110 -33q20 -6 48 -6q60 0 76 75h88q-36 -237 -187 -237q-23 0 -51 8l-121 35q-21 6 -33 6q-66 0 -82 -72z" />
    <glyph glyph-name="adieresis" unicode="&#xe4;" horiz-adv-x="993" 
d="M627 606q-123 -62 -172 -105q-86 -75 -86 -173q0 -150 118 -150q140 0 140 244v184zM664 0q-16 23 -29 112q-86 -143 -264 -143q-141 0 -215 100q-64 89 -64 236q0 159 87 252q64 70 233 145l54 24q157 67 157 157q0 114 -119 114q-142 0 -142 -161v-23h-260
q0 200 102 290q96 83 300 83q208 0 293 -79q88 -83 88 -288v-653q0 -94 39 -166h-260zM559 1303v237h220v-237h-220zM217 1303v237h220v-237h-220z" />
    <glyph glyph-name="aring" unicode="&#xe5;" horiz-adv-x="993" 
d="M627 606q-123 -62 -172 -105q-86 -75 -86 -173q0 -150 118 -150q140 0 140 244v184zM664 0q-16 23 -29 112q-86 -143 -264 -143q-141 0 -215 100q-64 89 -64 236q0 159 87 252q64 70 233 145l54 24q157 67 157 157q0 114 -119 114q-142 0 -142 -161v-23h-260
q0 200 102 290q96 83 300 83q208 0 293 -79q88 -83 88 -288v-653q0 -94 39 -166h-260zM446 1444q0 -32 24 -56t56 -24q33 0 56.5 23.5t23.5 56.5q0 34 -23 56t-57 22q-33 0 -56.5 -22.5t-23.5 -55.5zM328 1444q0 83 57.5 142t140.5 59q84 0 142.5 -58.5t58.5 -142.5
t-58.5 -142.5t-142.5 -58.5q-83 0 -140.5 59t-57.5 142z" />
    <glyph glyph-name="ae" unicode="&#xe6;" horiz-adv-x="1450" 
d="M614 604q-10 -7 -37 -23q-217 -133 -217 -262q0 -151 117 -151q93 0 122 91q15 48 15 169v176zM874 725h250v33q0 104 -17 150q-28 77 -112 77q-121 0 -121 -219v-41zM725 88q-93 -121 -295 -121q-336 0 -336 342q0 249 238 357l88 38q192 82 192 173q0 122 -133 122
q-131 0 -131 -165v-15h-250v21q0 348 387 348q191 0 283 -78q74 78 229 78q224 0 312 -161q65 -121 65 -368q0 -50 -4 -118h-496v-84q0 -137 10 -181q25 -108 117 -108q117 0 117 215v14h248v-32q0 -398 -362 -398q-185 0 -279 121z" />
    <glyph glyph-name="ccedilla" unicode="&#xe7;" horiz-adv-x="930" 
d="M846 454q2 -24 2 -65q0 -420 -375 -420q-252 0 -337 191q-54 122 -54 418t54 419q85 191 337 191q373 0 373 -389v-41h-256v26q0 197 -115 197q-117 0 -117 -195v-399q0 -96 14 -139q25 -74 101 -74q84 0 109 94q12 45 12 162v25zM225 -319q160 -27 213 -27q86 0 86 72
q0 61 -104 61h-23v213h115v-83q201 -18 201 -193q0 -209 -254 -209q-85 0 -234 28v138z" />
    <glyph glyph-name="egrave" unicode="&#xe8;" horiz-adv-x="975" 
d="M358 725h260v49q0 100 -18 142q-28 67 -113 67q-71 0 -101 -46q-36 -57 -30 -163l1 -16q1 -17 1 -33zM627 397h252q0 -8 1 -22.5t1 -22.5q0 -200 -96 -291.5t-298 -91.5q-209 0 -301 111q-73 88 -93 257q-9 74 -9 279q0 165 9 235q18 142 79 216q100 121 322 121
q214 0 313 -131q80 -106 80 -428v-88h-526q-3 -19 -3 -74q0 -129 14 -184q29 -113 120 -113q135 0 135 227zM628 1280h-125l-305 285h256z" />
    <glyph glyph-name="eacute" unicode="&#xe9;" horiz-adv-x="975" 
d="M358 725h260v49q0 100 -18 142q-28 67 -113 67q-71 0 -101 -46q-36 -57 -30 -163l1 -16q1 -17 1 -33zM627 397h252q0 -8 1 -22.5t1 -22.5q0 -200 -96 -291.5t-298 -91.5q-209 0 -301 111q-73 88 -93 257q-9 74 -9 279q0 165 9 235q18 142 79 216q100 121 322 121
q214 0 313 -131q80 -106 80 -428v-88h-526q-3 -19 -3 -74q0 -129 14 -184q29 -113 120 -113q135 0 135 227zM346 1280l174 285h256l-305 -285h-125z" />
    <glyph glyph-name="ecircumflex" unicode="&#xea;" horiz-adv-x="975" 
d="M358 725h260v49q0 100 -18 142q-28 67 -113 67q-71 0 -101 -46q-36 -57 -30 -163l1 -16q1 -17 1 -33zM627 397h252q0 -8 1 -22.5t1 -22.5q0 -200 -96 -291.5t-298 -91.5q-209 0 -301 111q-73 88 -93 257q-9 74 -9 279q0 165 9 235q18 142 79 216q100 121 322 121
q214 0 313 -131q80 -106 80 -428v-88h-526q-3 -19 -3 -74q0 -129 14 -184q29 -113 120 -113q135 0 135 227zM211 1280l174 285h204l174 -285h-124l-152 150l-152 -150h-124z" />
    <glyph glyph-name="edieresis" unicode="&#xeb;" horiz-adv-x="975" 
d="M358 725h260v49q0 100 -18 142q-28 67 -113 67q-71 0 -101 -46q-36 -57 -30 -163l1 -16q1 -17 1 -33zM627 397h252q0 -8 1 -22.5t1 -22.5q0 -200 -96 -291.5t-298 -91.5q-209 0 -301 111q-73 88 -93 257q-9 74 -9 279q0 165 9 235q18 142 79 216q100 121 322 121
q214 0 313 -131q80 -106 80 -428v-88h-526q-3 -19 -3 -74q0 -129 14 -184q29 -113 120 -113q135 0 135 227zM548 1303v237h220v-237h-220zM206 1303v237h220v-237h-220z" />
    <glyph glyph-name="igrave" unicode="&#xec;" horiz-adv-x="496" 
d="M115 0v1157h266v-1157h-266zM389 1280h-125l-305 285h256z" />
    <glyph glyph-name="iacute" unicode="&#xed;" horiz-adv-x="496" 
d="M115 0v1157h266v-1157h-266zM107 1280l174 285h256l-305 -285h-125z" />
    <glyph glyph-name="icircumflex" unicode="&#xee;" horiz-adv-x="496" 
d="M115 0v1157h266v-1157h-266zM-28 1280l174 285h204l174 -285h-124l-152 150l-152 -150h-124z" />
    <glyph glyph-name="idieresis" unicode="&#xef;" horiz-adv-x="496" 
d="M115 0v1157h266v-1157h-266zM309 1303v237h220v-237h-220zM-33 1303v237h220v-237h-220z" />
    <glyph glyph-name="eth" unicode="&#xf0;" horiz-adv-x="979" 
d="M356 537q0 -197 4 -221q22 -142 127 -142q110 0 133 144q3 22 3 231v78q0 156 -8 194q-25 113 -126 113t-125 -114q-8 -36 -8 -195v-88zM555 1065q-76 114 -154 168l-264 -146l-55 107l221 119l-141 86l47 141q156 -79 258 -147l258 145l66 -111l-216 -116
q185 -137 260 -339q62 -167 62 -429q0 -288 -63 -406q-89 -168 -345 -168q-255 0 -344 168q-63 119 -63 406q0 252 51 377q79 192 291 192q74 0 131 -47z" />
    <glyph glyph-name="ntilde" unicode="&#xf1;" horiz-adv-x="993" 
d="M117 0v1157h262v-117q85 148 242 148q260 0 260 -279v-909h-258v776q0 185 -113 185q-125 0 -125 -224v-737h-268zM305 1292h-88q40 232 179 232q34 0 61 -8l110 -33q20 -6 48 -6q60 0 76 75h88q-36 -237 -187 -237q-23 0 -51 8l-121 35q-21 6 -33 6q-66 0 -82 -72z" />
    <glyph glyph-name="ograve" unicode="&#xf2;" horiz-adv-x="979" 
d="M356 563q0 -215 3 -234q21 -155 128 -155t131 133q5 29 5 217v113q0 176 -7 212q-24 132 -127 132q-100 0 -125 -116q-8 -37 -8 -195v-107zM82 578q0 299 59 424q88 186 348 186t349 -186q59 -124 59 -424t-59 -424q-89 -185 -349 -185t-348 186q-59 124 -59 423z
M630 1280h-125l-305 285h256z" />
    <glyph glyph-name="oacute" unicode="&#xf3;" horiz-adv-x="979" 
d="M356 563q0 -215 3 -234q21 -155 128 -155t131 133q5 29 5 217v113q0 176 -7 212q-24 132 -127 132q-100 0 -125 -116q-8 -37 -8 -195v-107zM82 578q0 299 59 424q88 186 348 186t349 -186q59 -124 59 -424t-59 -424q-89 -185 -349 -185t-348 186q-59 124 -59 423z
M348 1280l174 285h256l-305 -285h-125z" />
    <glyph glyph-name="ocircumflex" unicode="&#xf4;" horiz-adv-x="979" 
d="M356 563q0 -215 3 -234q21 -155 128 -155t131 133q5 29 5 217v113q0 176 -7 212q-24 132 -127 132q-100 0 -125 -116q-8 -37 -8 -195v-107zM82 578q0 299 59 424q88 186 348 186t349 -186q59 -124 59 -424t-59 -424q-89 -185 -349 -185t-348 186q-59 124 -59 423z
M213 1280l174 285h204l174 -285h-124l-152 150l-152 -150h-124z" />
    <glyph glyph-name="otilde" unicode="&#xf5;" horiz-adv-x="979" 
d="M356 563q0 -215 3 -234q21 -155 128 -155t131 133q5 29 5 217v113q0 176 -7 212q-24 132 -127 132q-100 0 -125 -116q-8 -37 -8 -195v-107zM82 578q0 299 59 424q88 186 348 186t349 -186q59 -124 59 -424t-59 -424q-89 -185 -349 -185t-348 186q-59 124 -59 423z
M296 1292h-88q40 232 179 232q34 0 61 -8l110 -33q20 -6 48 -6q60 0 76 75h88q-36 -237 -187 -237q-23 0 -51 8l-121 35q-21 6 -33 6q-66 0 -82 -72z" />
    <glyph glyph-name="odieresis" unicode="&#xf6;" horiz-adv-x="979" 
d="M356 563q0 -215 3 -234q21 -155 128 -155t131 133q5 29 5 217v113q0 176 -7 212q-24 132 -127 132q-100 0 -125 -116q-8 -37 -8 -195v-107zM82 578q0 299 59 424q88 186 348 186t349 -186q59 -124 59 -424t-59 -424q-89 -185 -349 -185t-348 186q-59 124 -59 423z
M550 1303v237h220v-237h-220zM208 1303v237h220v-237h-220z" />
    <glyph glyph-name="divide" unicode="&#xf7;" horiz-adv-x="1706" 
d="M854 369q62 0 107 -45t45 -107t-45 -105.5t-107 -43.5q-64 0 -108 43t-44 106t44.5 107.5t107.5 44.5zM254 711h1198v-199h-1198v199zM854 1155q62 0 107 -44.5t45 -106.5q0 -63 -44.5 -107.5t-107.5 -44.5t-107.5 44.5t-44.5 107.5t44.5 107t107.5 44z" />
    <glyph glyph-name="oslash" unicode="&#xf8;" horiz-adv-x="979" 
d="M627 707l-264 -403q2 -134 124 -134q99 0 127 87q13 42 13 173v277zM352 471l266 401q-19 113 -129 113q-99 0 -127 -108q-12 -47 -12 -189q0 -36 1 -108.5t1 -108.5zM-4 -49l139 213q-53 133 -53 375q0 310 47 442q74 207 360 207q174 0 271 -82l106 166l99 -74
l-125 -192q57 -144 57 -404q0 -312 -55 -437q-88 -196 -353 -196q-179 0 -278 86l-117 -176z" />
    <glyph glyph-name="ugrave" unicode="&#xf9;" horiz-adv-x="991" 
d="M877 1157v-1157h-263v115q-83 -146 -243 -146q-258 0 -258 279v909h258v-756q0 -93 14 -133q25 -69 100 -69q81 0 108 75q15 43 15 144v739h269zM637 1280h-125l-305 285h256z" />
    <glyph glyph-name="uacute" unicode="&#xfa;" horiz-adv-x="991" 
d="M877 1157v-1157h-263v115q-83 -146 -243 -146q-258 0 -258 279v909h258v-756q0 -93 14 -133q25 -69 100 -69q81 0 108 75q15 43 15 144v739h269zM355 1280l174 285h256l-305 -285h-125z" />
    <glyph glyph-name="ucircumflex" unicode="&#xfb;" horiz-adv-x="991" 
d="M877 1157v-1157h-263v115q-83 -146 -243 -146q-258 0 -258 279v909h258v-756q0 -93 14 -133q25 -69 100 -69q81 0 108 75q15 43 15 144v739h269zM220 1280l174 285h204l174 -285h-124l-152 150l-152 -150h-124z" />
    <glyph glyph-name="udieresis" unicode="&#xfc;" horiz-adv-x="991" 
d="M877 1157v-1157h-263v115q-83 -146 -243 -146q-258 0 -258 279v909h258v-756q0 -93 14 -133q25 -69 100 -69q81 0 108 75q15 43 15 144v739h269zM557 1303v237h220v-237h-220zM215 1303v237h220v-237h-220z" />
    <glyph glyph-name="yacute" unicode="&#xfd;" horiz-adv-x="909" 
d="M176 -379v200q7 0 21 -1h22q109 0 109 78q0 22 -11 66l-297 1193h283l160 -835l155 835h271l-301 -1266q-37 -155 -98 -213q-69 -65 -220 -65q-44 0 -94 8zM314 1280l174 285h256l-305 -285h-125z" />
    <glyph glyph-name="thorn" unicode="&#xfe;" horiz-adv-x="995" 
d="M385 98v-487h-268v1929h268v-491q48 139 221 139q204 0 270 -218q35 -116 35 -386q0 -284 -32 -394q-63 -221 -273 -221q-152 0 -221 129zM516 967q-101 0 -128 -117q-11 -47 -11 -197q0 -241 3 -268q24 -190 136 -190q98 0 119 159q4 27 4 228q0 194 -5 227
q-21 158 -118 158z" />
    <glyph glyph-name="ydieresis" unicode="&#xff;" horiz-adv-x="909" 
d="M176 -379v200q7 0 21 -1h22q109 0 109 78q0 22 -11 66l-297 1193h283l160 -835l155 835h271l-301 -1266q-37 -155 -98 -213q-69 -65 -220 -65q-44 0 -94 8zM516 1303v237h220v-237h-220zM174 1303v237h220v-237h-220z" />
    <glyph glyph-name="Cacute" unicode="&#x106;" horiz-adv-x="1122" 
d="M743 549h279q0 -10 1 -30t1 -30q0 -526 -457 -526q-212 0 -325 117q-101 105 -130 338q-12 101 -12 370q0 454 78 588q117 201 389 201q246 0 353 -137q95 -123 95 -377h-278v37q0 248 -164 248q-103 0 -148 -113q-33 -83 -35 -236q5 401 5 -206q0 -1327 -6 -215
q1 -165 34 -257q44 -124 148 -124q116 0 153 117q19 61 19 214v21zM420 1669l174 285h256l-305 -285h-125z" />
    <glyph glyph-name="cacute" unicode="&#x107;" horiz-adv-x="930" 
d="M846 454q2 -24 2 -65q0 -420 -375 -420q-252 0 -337 191q-54 122 -54 418t54 419q85 191 337 191q373 0 373 -389v-41h-256v26q0 197 -115 197q-117 0 -117 -195v-399q0 -96 14 -139q25 -74 101 -74q84 0 109 94q12 45 12 162v25zM324 1280l174 285h256l-305 -285h-125z
" />
    <glyph glyph-name="Ccaron" unicode="&#x10c;" horiz-adv-x="1122" 
d="M743 549h279q0 -10 1 -30t1 -30q0 -526 -457 -526q-212 0 -325 117q-101 105 -130 338q-12 101 -12 370q0 454 78 588q117 201 389 201q246 0 353 -137q95 -123 95 -377h-278v37q0 248 -164 248q-103 0 -148 -113q-33 -83 -35 -236q5 401 5 -206q0 -1327 -6 -215
q1 -165 34 -257q44 -124 148 -124q116 0 153 117q19 61 19 214v21zM285 1954h124l152 -150l152 150h124l-174 -285h-204z" />
    <glyph glyph-name="ccaron" unicode="&#x10d;" horiz-adv-x="930" 
d="M846 454q2 -24 2 -65q0 -420 -375 -420q-252 0 -337 191q-54 122 -54 418t54 419q85 191 337 191q373 0 373 -389v-41h-256v26q0 197 -115 197q-117 0 -117 -195v-399q0 -96 14 -139q25 -74 101 -74q84 0 109 94q12 45 12 162v25zM189 1565h124l152 -150l152 150h124
l-174 -285h-204z" />
    <glyph glyph-name="Dslash" unicode="&#x110;" horiz-adv-x="1208" 
d="M135 0v715h-143v205h143v620h461q258 0 362 -102q99 -98 131 -269q19 -101 19 -305q0 -252 -10 -355q-20 -213 -92 -339q-65 -115 -209 -150q-80 -20 -267 -20h-395zM416 227h129q154 0 196 62q74 110 74 499q0 177 -8 249q-17 165 -78 231q-43 47 -188 47h-125v-395h231
v-205h-231v-488z" />
    <glyph glyph-name="dcroat" unicode="&#x111;" horiz-adv-x="995" 
d="M356 596q0 -210 3 -237q22 -169 120 -169q101 0 128 117q11 46 11 197q0 241 -3 268q-24 191 -136 191q-94 0 -117 -150q-6 -39 -6 -217zM625 121q-67 -152 -236 -152q-204 0 -270 218q-35 116 -35 386q0 277 32 391q63 224 267 224q159 0 227 -129v215h-229v143h229v123
h269v-123h159v-143h-159v-1274h-254v121z" />
    <glyph glyph-name="Gbreve" unicode="&#x11e;" horiz-adv-x="1206" 
d="M891 0l-21 170q-45 -115 -127 -163q-75 -44 -204 -44q-296 0 -389 304q-50 161 -50 550q0 431 97 578q119 180 405 180q247 0 365 -117t118 -364v-39h-268v16q0 279 -205 279q-122 0 -177 -118q-40 -89 -44 -253q4 168 4 -234q0 -252 14 -328q40 -218 189 -218
q132 0 180 113q31 73 31 229v53h-199v246h475v-840h-194zM330 1954h114q21 -123 160 -123q144 0 160 123h114q-27 -285 -274 -285q-249 0 -274 285z" />
    <glyph glyph-name="gbreve" unicode="&#x11f;" horiz-adv-x="995" 
d="M879 92q0 -250 -64 -344q-94 -137 -350 -137q-352 0 -356 262h265q6 -72 99 -72q88 0 118 69q19 44 19 148v80q-67 -129 -219 -129q-210 0 -274 221q-33 111 -33 394q0 269 35 386q66 218 270 218q170 0 236 -152v121h254v-1065zM479 967q-98 0 -120 -170q-3 -27 -3 -238
q0 -181 5 -216q23 -148 118 -148q112 0 136 190q3 27 3 268q0 151 -11 197q-27 117 -128 117zM224 1565h114q21 -123 160 -123q144 0 160 123h114q-27 -285 -274 -285q-249 0 -274 285z" />
    <glyph glyph-name="Idotaccent" unicode="&#x130;" horiz-adv-x="549" 
d="M131 0v1540h287v-1540h-287zM168 1696v231h212v-231h-212z" />
    <glyph glyph-name="dotlessi" unicode="&#x131;" horiz-adv-x="496" 
d="M115 0v1157h266v-1157h-266z" />
    <glyph glyph-name="Lslash" unicode="&#x141;" horiz-adv-x="1014" 
d="M145 0v582l-153 -107v227l153 107v731h287v-610l250 174v-227l-250 -175v-440h518v-262h-805z" />
    <glyph glyph-name="lslash" unicode="&#x142;" horiz-adv-x="535" 
d="M135 0v608l-135 -96v188l135 99v741h264v-614l136 92v-187l-136 -94v-737h-264z" />
    <glyph glyph-name="OE" unicode="&#x152;" horiz-adv-x="1667" 
d="M801 412v739q0 88 -52.5 142.5t-140.5 54.5q-158 0 -201 -239q-16 -88 -16 -355q0 -250 19 -341q46 -220 206 -220q89 0 140 67q45 60 45 152zM819 113q-68 -148 -278 -148q-283 0 -380 279q-57 163 -57 518q0 442 70 581q118 234 387 234q185 0 258 -147v110h760v-256
h-502v-358h469v-240h-469v-426h516v-260h-774v113z" />
    <glyph glyph-name="oe" unicode="&#x153;" horiz-adv-x="1425" 
d="M864 723h232v90q0 166 -123 166q-111 0 -111 -195q0 -10 1 -30.5t1 -30.5zM346 653v-82q0 -213 3 -237q22 -164 124 -164q92 0 118 107q11 45 11 180v164q0 177 -6 216q-24 142 -123 142t-121 -125q-6 -31 -6 -201zM729 86q-81 -117 -295 -117q-234 0 -307 193
q-41 109 -41 399q0 371 53 467q88 160 312 160q175 0 272 -129q97 129 272 129q181 0 273 -123q54 -72 70 -189q8 -61 8 -204v-137h-484v-72q0 -155 5 -183q22 -110 114 -110q74 0 100 65q15 40 15 130v30h245v-43q0 -383 -342 -383q-193 0 -270 117z" />
    <glyph glyph-name="Scedilla" unicode="&#x15e;" horiz-adv-x="1122" 
d="M102 541h287v-99q0 -119 22 -168q34 -77 136 -77q186 0 186 182q0 82 -53 144q-33 38 -123 102l-147 104q-160 114 -212 178q-81 102 -81 256q0 198 118 307q115 107 314 107q216 0 329 -118t113 -335q0 -37 -2 -55h-272v41q0 112 -32 165q-41 68 -144 68
q-148 0 -148 -153q0 -97 177 -215l3 -2l158 -107q171 -116 229 -211q60 -100 60 -254q0 -215 -125 -329q-120 -109 -338 -109q-459 0 -459 486q0 6 2 34.5t2 51.5v6zM321 -319q160 -27 213 -27q86 0 86 72q0 61 -104 61h-23v213h115v-83q201 -18 201 -193q0 -209 -254 -209
q-85 0 -234 28v138z" />
    <glyph glyph-name="scedilla" unicode="&#x15f;" horiz-adv-x="901" 
d="M76 385h241v-33q0 -184 132 -184q120 0 120 113q0 66 -129 152l-51 34l-12 9q-295 221 -295 396q0 316 373 316q352 0 352 -361v-24h-236v24q0 162 -133 162q-110 0 -110 -100q0 -53 50 -102q22 -21 95 -70q17 -12 61 -41q291 -193 291 -385q0 -164 -110 -248
q-99 -74 -269 -74q-372 0 -372 371q0 8 1 22.5t1 22.5zM127 -319q160 -27 213 -27q86 0 86 72q0 61 -104 61h-23v213h115v-83q201 -18 201 -193q0 -209 -254 -209q-85 0 -234 28v138z" />
    <glyph glyph-name="Scaron" unicode="&#x160;" horiz-adv-x="1122" 
d="M102 541h287v-99q0 -119 22 -168q34 -77 136 -77q186 0 186 182q0 82 -53 144q-33 38 -123 102l-147 104q-160 114 -212 178q-81 102 -81 256q0 198 118 307q115 107 314 107q216 0 329 -118t113 -335q0 -37 -2 -55h-272v41q0 112 -32 165q-41 68 -144 68
q-148 0 -148 -153q0 -97 177 -215l3 -2l158 -107q171 -116 229 -211q60 -100 60 -254q0 -215 -125 -329q-120 -109 -338 -109q-459 0 -459 486q0 6 2 34.5t2 51.5v6zM285 1954h124l152 -150l152 150h124l-174 -285h-204z" />
    <glyph glyph-name="scaron" unicode="&#x161;" horiz-adv-x="901" 
d="M76 385h241v-33q0 -184 132 -184q120 0 120 113q0 66 -129 152l-51 34l-12 9q-295 221 -295 396q0 316 373 316q352 0 352 -361v-24h-236v24q0 162 -133 162q-110 0 -110 -100q0 -53 50 -102q22 -21 95 -70q17 -12 61 -41q291 -193 291 -385q0 -164 -110 -248
q-99 -74 -269 -74q-372 0 -372 371q0 8 1 22.5t1 22.5zM175 1565h124l152 -150l152 150h124l-174 -285h-204z" />
    <glyph glyph-name="Ydieresis" unicode="&#x178;" horiz-adv-x="1126" 
d="M422 0v653l-404 887h318l233 -579l230 579h309l-397 -887v-653h-289zM624 1692v237h220v-237h-220zM282 1692v237h220v-237h-220z" />
    <glyph glyph-name="Zcaron" unicode="&#x17d;" horiz-adv-x="991" 
d="M61 0v260l541 1040h-514v240h819v-237l-534 -1043h557v-260h-869zM220 1954h124l152 -150l152 150h124l-174 -285h-204z" />
    <glyph glyph-name="zcaron" unicode="&#x17e;" horiz-adv-x="784" 
d="M43 0v213l391 719h-387v225h688v-194l-403 -736h407v-227h-696zM117 1565h124l152 -150l152 150h124l-174 -285h-204z" />
    <glyph glyph-name="florin" unicode="&#x192;" 
d="M-10 -362l31 229q47 -18 88 -19q100 -1 129 175l133 796h-234v197h258q31 238 99 358q99 176 299 176q81 0 163 -37l-41 -206q-36 28 -88 28q-91 0 -132 -122q-18 -55 -33 -197h225v-197h-248l-113 -696q-36 -223 -94 -334q-92 -178 -268 -178q-91 0 -174 27z" />
    <glyph glyph-name="circumflex" unicode="&#x2c6;" 
d="M236 1280l174 285h204l174 -285h-124l-152 150l-152 -150h-124z" />
    <glyph glyph-name="caron" unicode="&#x2c7;" 
d="M236 1565h124l152 -150l152 150h124l-174 -285h-204z" />
    <glyph glyph-name="macron" unicode="&#xaf;" 
d="M252 1341v162h520v-162h-520z" />
    <glyph glyph-name="macron" unicode="&#x2c9;" 
d="M252 1341v162h520v-162h-520z" />
    <glyph glyph-name="breve" unicode="&#x2d8;" 
d="M238 1565h114q21 -123 160 -123q144 0 160 123h114q-27 -285 -274 -285q-249 0 -274 285z" />
    <glyph glyph-name="dotaccent" unicode="&#x2d9;" 
d="M406 1307v231h212v-231h-212z" />
    <glyph glyph-name="ring" unicode="&#x2da;" 
d="M426 1497q0 -36 26 -60t62 -24q37 0 61.5 23.5t24.5 60.5q0 38 -24 63t-62 25t-63 -25t-25 -63zM297 1501q0 90 62.5 152.5t152.5 62.5t153.5 -62.5t63.5 -152.5q0 -92 -62.5 -155.5t-154.5 -63.5t-153.5 63.5t-61.5 155.5z" />
    <glyph glyph-name="ogonek" unicode="&#x2db;" 
d="M633 0q-119 -110 -119 -197q0 -79 76 -79h84v-191h-56q-135 0 -198 32q-88 45 -88 165q0 146 192 270h109z" />
    <glyph glyph-name="tilde" unicode="&#x2dc;" 
d="M319 1292h-88q40 232 179 232q34 0 61 -8l110 -33q20 -6 48 -6q60 0 76 75h88q-36 -237 -187 -237q-23 0 -51 8l-121 35q-21 6 -33 6q-66 0 -82 -72z" />
    <glyph glyph-name="hungarumlaut" unicode="&#x2dd;" 
d="M563 1280l164 285h242l-295 -285h-111zM283 1280l129 285h231l-264 -285h-96z" />
    <glyph glyph-name="Delta" unicode="&#x394;" horiz-adv-x="1427" 
d="M713 1110l-326 -854h653zM563 1473h301l563 -1473h-1427z" />
    <glyph glyph-name="Delta" unicode="&#x2206;" horiz-adv-x="1427" 
d="M713 1110l-326 -854h653zM563 1473h301l563 -1473h-1427z" />
    <glyph glyph-name="Omega" unicode="&#x3a9;" horiz-adv-x="1575" 
d="M1227 256h291v-256h-609v291q258 176 258 514q0 193 -92 309q-101 127 -289 127q-187 0 -288 -127q-92 -117 -92 -309q0 -340 258 -514v-291h-609v256h291q-248 238 -248 563q0 314 187 502t501 188t501.5 -188t187.5 -502q0 -325 -248 -563z" />
    <glyph glyph-name="Omega" unicode="&#x2126;" horiz-adv-x="1575" 
d="M1227 256h291v-256h-609v291q258 176 258 514q0 193 -92 309q-101 127 -289 127q-187 0 -288 -127q-92 -117 -92 -309q0 -340 258 -514v-291h-609v256h291q-248 238 -248 563q0 314 187 502t501 188t501.5 -188t187.5 -502q0 -325 -248 -563z" />
    <glyph glyph-name="mu" unicode="&#xb5;" horiz-adv-x="1249" 
d="M205 1092h289l-76 -435q-31 -177 -31 -268q0 -184 170 -184q122 0 185 134q34 72 63 239l90 514h289l-193 -1092h-268l18 117q-81 -150 -215 -150q-131 0 -213 121l-90 -526h-286z" />
    <glyph glyph-name="mu" unicode="&#x3bc;" horiz-adv-x="1249" 
d="M205 1092h289l-76 -435q-31 -177 -31 -268q0 -184 170 -184q122 0 185 134q34 72 63 239l90 514h289l-193 -1092h-268l18 117q-81 -150 -215 -150q-131 0 -213 121l-90 -526h-286z" />
    <glyph glyph-name="pi" unicode="&#x3c0;" horiz-adv-x="1319" 
d="M1354 1092l-39 -224h-176l-154 -868h-287l152 868h-238l-151 -868h-287l152 868h-25q-104 0 -123 -130l-213 -1q30 203 130 281q94 74 304 74h955z" />
    <glyph glyph-name="endash" unicode="&#x2013;" 
d="M0 498v161h1024v-161h-1024z" />
    <glyph glyph-name="emdash" unicode="&#x2014;" horiz-adv-x="2048" 
d="M0 498v161h2048v-161h-2048z" />
    <glyph glyph-name="quoteleft" unicode="&#x2018;" horiz-adv-x="512" 
d="M369 1577v-98q-129 -17 -129 -162v-17h127v-262h-246v277q0 108 71 180q67 68 177 82z" />
    <glyph glyph-name="quoteright" unicode="&#x2019;" horiz-adv-x="512" 
d="M121 1004v98q127 17 127 162v16h-127v260h248v-274q0 -108 -71 -180q-67 -67 -177 -82z" />
    <glyph glyph-name="quotesinglbase" unicode="&#x201a;" horiz-adv-x="512" 
d="M121 -274v98q127 17 127 160v16h-127v262h248v-276q0 -108 -71 -179q-67 -67 -177 -81z" />
    <glyph glyph-name="quotedblleft" unicode="&#x201c;" horiz-adv-x="907" 
d="M516 1038v277q0 108 71 180q68 67 177 82v-98q-129 -17 -129 -162v-17h127v-262h-246zM121 1038v277q0 108 71 180q67 68 177 82v-98q-129 -17 -129 -162v-17h127v-262h-246z" />
    <glyph glyph-name="quotedblright" unicode="&#x201d;" horiz-adv-x="907" 
d="M369 1540v-274q0 -108 -71 -180q-67 -67 -177 -82v98q127 17 127 162v16h-127v260h248zM764 1540v-274q0 -108 -71 -180q-67 -67 -177 -82v98q127 17 127 162v16h-127v260h248z" />
    <glyph glyph-name="quotedblbase" unicode="&#x201e;" horiz-adv-x="907" 
d="M764 262v-276q0 -108 -71 -179q-67 -67 -177 -81v98q127 17 127 160v16h-127v262h248zM369 262v-276q0 -108 -71 -179q-67 -67 -177 -81v98q127 17 127 160v16h-127v262h248z" />
    <glyph glyph-name="dagger" unicode="&#x2020;" 
d="M381 -178v1067h-303v241h303v410h260v-410h303v-241h-303v-1067h-260z" />
    <glyph glyph-name="daggerdbl" unicode="&#x2021;" 
d="M381 -170v391h-293v228h293v473h-293v229h293v389h260v-389h295v-229h-295v-473h295v-228h-295v-391h-260z" />
    <glyph glyph-name="bullet" unicode="&#x2022;" horiz-adv-x="1208" 
d="M307 762q0 124 86.5 209.5t210.5 85.5q123 0 209 -86t86 -209t-87 -210t-210 -87q-124 0 -209.5 86.5t-85.5 210.5z" />
    <glyph glyph-name="ellipsis" unicode="&#x2026;" horiz-adv-x="2048" 
d="M213 0v276h258v-276h-258zM895 0v276h258v-276h-258zM1579 0v276h258v-276h-258z" />
    <glyph glyph-name="perthousand" unicode="&#x2030;" horiz-adv-x="2308" 
d="M1786 356q0 -110 10 -148q23 -83 102 -83q83 0 107 79q12 40 12 150q0 105 -14 148q-26 80 -107 80q-75 0 -98 -82q-12 -42 -12 -144zM1583 360q0 186 62 274q74 103 251 103q182 0 258 -99q66 -87 66 -276q0 -190 -66 -282q-77 -109 -258 -109q-180 0 -253 108
q-60 90 -60 281zM1055 356q0 -109 11 -148q23 -83 103 -83q82 0 106 80q11 38 11 149q0 104 -14 148q-26 80 -107 80q-75 0 -98 -82q-12 -42 -12 -144zM852 360q0 186 62 274q74 103 251 103q182 0 258 -99q66 -87 66 -276t-66 -282q-78 -109 -258 -109q-181 0 -253 108
q-60 89 -60 281zM291 1169q0 -109 11 -148q24 -81 104 -81q82 0 105 80q11 38 11 149q0 104 -14 147q-26 79 -107 79q-75 0 -98 -82q-12 -42 -12 -144zM90 1176q0 186 62 273q73 101 251 101q182 0 256 -98q66 -85 66 -274q0 -190 -65 -283q-77 -111 -257 -111
q-181 0 -253 110q-60 90 -60 282zM360 -29l705 1579h149l-706 -1579h-148z" />
    <glyph glyph-name="guilsinglleft" unicode="&#x2039;" horiz-adv-x="588" 
d="M451 965v-222l-193 -163l193 -166v-221l-314 282v207z" />
    <glyph glyph-name="guilsinglright" unicode="&#x203a;" horiz-adv-x="588" 
d="M137 193v221l193 164l-193 165v222l314 -283v-207z" />
    <glyph glyph-name="fraction" unicode="&#x2044;" horiz-adv-x="342" 
d="M-188 -29h-154l868 1579h156z" />
    <glyph glyph-name="franc" unicode="&#x20a3;" horiz-adv-x="1694" 
d="M131 0v1540h805v-252h-518v-364h489v-246h-489v-678h-287zM1120 0v1157h256v-188q102 216 270 218v-325q-30 4 -67 4q-86 0 -136.5 -51t-50.5 -137v-678h-272z" />
    <glyph glyph-name="trademark" unicode="&#x2122;" horiz-adv-x="1706" 
d="M803 1462h196l127 -332l123 332h197v-547h-135v410l-154 -410h-61l-158 410v-410h-135v547zM207 1462h485v-112h-168v-435h-149v435h-168v112z" />
    <glyph glyph-name="partialdiff" unicode="&#x2202;" horiz-adv-x="1094" 
d="M762 662q39 203 39 344q0 215 -96 215q-39 0 -146 -73t-160 -73q-43 0 -71.5 30t-28.5 73q0 82 114 132q90 40 183 40q218 0 332 -197q94 -162 94 -397q0 -294 -127 -515q-153 -266 -426 -266q-174 0 -283.5 115.5t-109.5 290.5q0 187 106 319q115 142 297 142
q196 0 283 -180zM700 518q0 240 -149 240q-126 0 -189 -187q-45 -132 -45 -288q0 -238 150 -238q126 0 188 186q45 132 45 287z" />
    <glyph glyph-name="product" unicode="&#x220f;" horiz-adv-x="1612" 
d="M150 1473h1308v-1866h-344v1577h-620v-1577h-344v1866z" />
    <glyph glyph-name="summation" unicode="&#x2211;" horiz-adv-x="1470" 
d="M66 1473h1308v-265h-878l620 -645l-622 -690h933v-266h-1386v172l698 772l-673 690v232z" />
    <glyph glyph-name="minus" unicode="&#x2212;" horiz-adv-x="1706" 
d="M254 713h1198v-203h-1198v203z" />
    <glyph glyph-name="periodcentered" horiz-adv-x="512" 
d="M96 758q0 67 46.5 113.5t113.5 46.5q65 0 112.5 -47.5t47.5 -112.5q0 -66 -47 -112t-113 -46q-67 0 -113.5 45.5t-46.5 112.5z" />
    <glyph glyph-name="radical" unicode="&#x221a;" horiz-adv-x="1346" 
d="M1141 1694h207v-129h-103l-592 -1606h-100l-311 858l-140 -51l-30 113l331 116l236 -661z" />
    <glyph glyph-name="infinity" unicode="&#x221e;" horiz-adv-x="1706" 
d="M942 561q91 -151 246 -151q92 0 151.5 54.5t59.5 145.5q0 85 -52.5 142t-136.5 57q-143 0 -268 -248zM766 659q-88 150 -246 150q-92 0 -151.5 -55t-59.5 -146q0 -84 53 -141t136 -57q143 0 268 249zM858 457q-133 -258 -321 -258q-154 0 -248 133q-84 118 -84 278
q0 163 71 276q84 134 238 134q173 0 334 -258q134 260 323 260q153 0 248 -134q84 -119 84 -278q0 -162 -72 -276q-84 -133 -237 -133q-174 0 -336 256z" />
    <glyph glyph-name="integral" unicode="&#x222b;" horiz-adv-x="1186" 
d="M342 -252q103 0 121 639l6 211q13 391 69 587q106 369 382 369q90 0 150 -43q67 -48 67 -135q0 -61 -38.5 -97t-99.5 -36q-96 0 -118 92q-5 21 -7 54q-3 47 -30 47q-99 1 -119 -633l-6 -178q-9 -253 -19 -352q-20 -209 -71 -343q-115 -303 -363 -303q-88 0 -149 43
q-68 48 -68 133q0 136 144 136q45 0 81 -28q39 -31 39 -75q0 -88 29 -88z" />
    <glyph glyph-name="approxequal" unicode="&#x2248;" horiz-adv-x="1706" 
d="M1530 596v-219q-205 -139 -379 -139q-97 0 -291.5 66.5t-296.5 66.5q-159 0 -385 -158v219q217 143 387 143q110 0 308.5 -65.5t281.5 -65.5q163 0 375 152zM1530 1008v-220q-205 -137 -377 -137q-96 0 -291.5 65.5t-298.5 65.5q-156 0 -385 -157v219q216 143 387 143
q107 0 303 -65.5t287 -65.5q158 0 375 152z" />
    <glyph glyph-name="approxequal" unicode="&#x22f2;" horiz-adv-x="1706" 
d="M1530 596v-219q-205 -139 -379 -139q-97 0 -291.5 66.5t-296.5 66.5q-159 0 -385 -158v219q217 143 387 143q110 0 308.5 -65.5t281.5 -65.5q163 0 375 152zM1530 1008v-220q-205 -137 -377 -137q-96 0 -291.5 65.5t-298.5 65.5q-156 0 -385 -157v219q216 143 387 143
q107 0 303 -65.5t287 -65.5q158 0 375 152z" />
    <glyph glyph-name="notequal" unicode="&#x2260;" horiz-adv-x="1706" 
d="M1198 1233l148 -119l-154 -192h260v-191h-389l-191 -239h580v-193h-707l-245 -309l-148 119l154 190h-252v193h377l190 239h-567v191h696z" />
    <glyph glyph-name="lessequal" unicode="&#x2264;" horiz-adv-x="1706" 
d="M258 195h1192v-197h-1192v197zM1448 1241v-209l-834 -264l834 -262v-209l-1190 385v174z" />
    <glyph glyph-name="greaterequal" unicode="&#x2265;" horiz-adv-x="1706" 
d="M258 195h1192v-197h-1192v197zM260 1241l1188 -385v-174l-1188 -385v209l832 262l-832 264v209z" />
    <glyph glyph-name="SF370000" unicode="&#x255f;" 
d="M371 1280l174 285h256l-305 -285h-125z" />
    <glyph glyph-name="SF420000" unicode="&#x2560;" 
d="M653 1280h-125l-305 285h256z" />
    <glyph glyph-name="SF190000" unicode="&#x2561;" horiz-adv-x="1006" 
d="M358 1126h-249v39q0 196 98 302q101 110 295 110q184 0 289.5 -104t105.5 -287q0 -139 -61 -238q-34 -55 -104 -137q-84 -99 -109 -133q-70 -96 -70 -227q0 -6 1 -18.5t1 -18.5h-241q-3 19 -3 71q0 199 119 351q16 21 52 62q134 155 134 300q0 164 -124 164
q-134 0 -134 -199v-37zM565 266v-266h-256v266h256z" />
    <glyph glyph-name="SF200000" unicode="&#x2562;" horiz-adv-x="512" 
d="M127 0v276h258v-276h-258z" />
    <glyph glyph-name="lozenge" unicode="&#x25ca;" horiz-adv-x="1012" 
d="M506 1409l-385 -817l385 -825l385 825zM506 1653l500 -1061l-500 -1069l-500 1069z" />
    <glyph glyph-name="circle" unicode="&#x25cb;" horiz-adv-x="1120" 
d="M430 618h244l-123 646zM18 0l347 1540h385l350 -1540h-309l-76 387h-330l-74 -387h-293z" />
    <glyph glyph-name="H18533" unicode="&#x25cf;" horiz-adv-x="1014" 
d="M131 0v1540h791v-256h-506v-356h471v-244h-471v-424h518v-260h-803z" />
    <glyph glyph-name="invbullet" unicode="&#x25d8;" horiz-adv-x="549" 
d="M131 0v1540h287v-1540h-287z" />
    <glyph glyph-name="invcircle" unicode="&#x25d9;" horiz-adv-x="1202" 
d="M393 770q0 -301 -2 -222q4 -156 44 -242q52 -113 167 -113q114 0 165 114q39 85 43 242q-3 -109 -3 221q0 319 3 222q-5 157 -43 243q-52 115 -167 115t-167 -115q-38 -86 -43 -243q3 97 3 -222zM100 770q0 465 95 612q72 111 173 156q89 39 232 39t232 -39
q103 -46 174 -156q94 -145 94 -612q0 -465 -94 -612q-71 -110 -174 -156q-89 -39 -232 -39t-232 39q-101 45 -173 156q-95 147 -95 612z" />
    <glyph glyph-name="openbullet" unicode="&#x25e6;" horiz-adv-x="1223" 
d="M131 1540h287v-1038q0 -150 27 -211q43 -94 171 -94t169 97q26 60 26 212v1034h283v-1063q0 -252 -76 -352q-124 -162 -406 -162q-270 0 -379 123q-102 115 -102 391v1063z" />
    <glyph glyph-name="glyph264" horiz-adv-x="1126" 
d="M422 0v653l-404 887h318l233 -579l230 579h309l-397 -887v-653h-289z" />
    <glyph glyph-name="smileface" unicode="&#x263a;" horiz-adv-x="993" 
d="M627 606q-123 -62 -172 -105q-86 -75 -86 -173q0 -150 118 -150q140 0 140 244v184zM664 0q-16 23 -29 112q-86 -143 -264 -143q-141 0 -215 100q-64 89 -64 236q0 159 87 252q64 70 233 145l54 24q157 67 157 157q0 114 -119 114q-142 0 -142 -161v-23h-260
q0 200 102 290q96 83 300 83q208 0 293 -79q88 -83 88 -288v-653q0 -94 39 -166h-260z" />
    <glyph glyph-name="invsmileface" unicode="&#x263b;" horiz-adv-x="975" 
d="M358 725h260v49q0 100 -18 142q-28 67 -113 67q-71 0 -101 -46q-36 -57 -30 -163l1 -16q1 -17 1 -33zM627 397h252q0 -8 1 -22.5t1 -22.5q0 -200 -96 -291.5t-298 -91.5q-209 0 -301 111q-73 88 -93 257q-9 74 -9 279q0 165 9 235q18 142 79 216q100 121 322 121
q214 0 313 -131q80 -106 80 -428v-88h-526q-3 -19 -3 -74q0 -129 14 -184q29 -113 120 -113q135 0 135 227z" />
    <glyph glyph-name="sun" unicode="&#x263c;" horiz-adv-x="496" 
d="M115 1300v240h266v-240h-266zM115 0v1157h266v-1157h-266z" />
    <glyph glyph-name="female" unicode="&#x2640;" horiz-adv-x="496" 
d="M115 0v1157h266v-1157h-266z" />
    <glyph glyph-name="male" unicode="&#x2642;" horiz-adv-x="979" 
d="M356 563q0 -215 3 -234q21 -155 128 -155t131 133q5 29 5 217v113q0 176 -7 212q-24 132 -127 132q-100 0 -125 -116q-8 -37 -8 -195v-107zM82 578q0 299 59 424q88 186 348 186t349 -186q59 -124 59 -424t-59 -424q-89 -185 -349 -185t-348 186q-59 124 -59 423z" />
    <glyph glyph-name="spade" unicode="&#x2660;" horiz-adv-x="991" 
d="M877 1157v-1157h-263v115q-83 -146 -243 -146q-258 0 -258 279v909h258v-756q0 -93 14 -133q25 -69 100 -69q81 0 108 75q15 43 15 144v739h269z" />
    <glyph glyph-name="club" unicode="&#x2663;" horiz-adv-x="909" 
d="M176 -379v200q7 0 21 -1h22q109 0 109 78q0 22 -11 66l-297 1193h283l160 -835l155 835h271l-301 -1266q-37 -155 -98 -213q-69 -65 -220 -65q-44 0 -94 8z" />
    <glyph glyph-name="fi" unicode="&#xf001;" horiz-adv-x="1022" 
d="M141 0v958h-104v199h104v115q0 143 52 205q57 69 196 69q53 0 129 -6v-201q-4 0 -13 1t-13 1q-82 0 -82 -77v-107h108v-199h-108v-958h-269zM647 1300v240h264v-240h-264zM647 0v1157h264v-1157h-264z" />
    <glyph glyph-name="fl" unicode="&#xf002;" horiz-adv-x="1022" 
d="M911 0h-264v1540h264v-1540zM141 0v958h-104v199h104v115q0 143 52 205q57 69 196 69q53 0 129 -6v-201q-4 0 -13 1t-13 1q-82 0 -82 -77v-107h108v-199h-108v-958h-269z" />
    <glyph glyph-name="glyph274" horiz-adv-x="512" 
 />
    <glyph glyph-name="glyph275" horiz-adv-x="512" 
 />
    <glyph glyph-name="nonbreakingspace" unicode="&#xa0;" 
 />
    <glyph glyph-name="apple" unicode="&#xf000;" horiz-adv-x="1618" 
d="M836 1216q-2 12 -2 37q0 132 101 237q96 99 230 124q2 -20 2 -62q0 -117 -94 -226q-97 -112 -213 -112h-8q-3 0 -8 1t-8 1zM1505 403q-90 -196 -152 -279q-118 -159 -257 -159q-46 0 -130 33t-124 33q-44 0 -130 -33t-128 -33q-129 0 -258 176q-213 291 -213 596
q0 211 117 348q124 146 331 146q57 0 149.5 -34t129.5 -34q32 0 124.5 35t149.5 35q216 0 359 -164q-201 -128 -201 -328q0 -233 233 -338z" />
    <glyph glyph-name="sfthyphen" unicode="&#xad;" horiz-adv-x="672" 
d="M92 459v239h488v-239h-488z" />
    <glyph glyph-name="ch270" unicode="&#xb7;" horiz-adv-x="512" 
d="M96 758q0 67 46.5 113.5t113.5 46.5q65 0 112.5 -47.5t47.5 -112.5q0 -66 -47 -112t-113 -46q-67 0 -113.5 45.5t-46.5 112.5z" />
    <glyph glyph-name="ch270" unicode="&#x2219;" horiz-adv-x="512" 
d="M96 758q0 67 46.5 113.5t113.5 46.5q65 0 112.5 -47.5t47.5 -112.5q0 -66 -47 -112t-113 -46q-67 0 -113.5 45.5t-46.5 112.5z" />
    <glyph glyph-name="euro" 
d="M670 459h286v-31q0 -465 -413 -465q-431 0 -435 594h-128l63 141h66v144h-154l63 141h90q4 594 435 594q411 0 413 -471h-286v12q0 248 -140 248q-97 0 -124 -157q-11 -61 -11 -226h383l-63 -141h-320v-144h256l-63 -141h-192q1 -175 11 -229q28 -154 130 -154
q133 0 133 258v27z" />
    <glyph glyph-name="glyph261" 
d="M504 1471h-89v11q0 64 29 104q39 53 102 53q74 0 119 -52q31 -35 31 -99q0 -40 -18 -68q-32 -35 -76 -107q-5 -16 -5 -36v-11h-106v21q0 57 34 101l15 18q38 44 38 86q0 47 -35 47q-39 0 -39 -57v-11z" />
    <glyph glyph-name="glyph262" horiz-adv-x="993" 
d="M222 1280l174 285h204l174 -285h-124l-152 150l-152 -150h-124zM200 1585l174 285h256l-305 -285h-125z" />
    <glyph glyph-name="glyph263" horiz-adv-x="993" 
d="M222 1280l174 285h204l174 -285h-124l-152 150l-152 -150h-124zM803 1585h-125l-305 285h256z" />
    <glyph glyph-name="glyph264" horiz-adv-x="993" 
d="M222 1280l174 285h204l174 -285h-124l-152 150l-152 -150h-124zM677 1739h-89v11q0 64 29 104q39 53 102 53q74 0 119 -52q31 -35 31 -99q0 -40 -18 -68q-32 -35 -76 -107q-5 -16 -5 -36v-11h-106v21q0 57 34 101l15 18q38 44 38 86q0 47 -35 47q-39 0 -39 -57v-11z" />
    <glyph glyph-name="glyph265" horiz-adv-x="993" 
d="M222 1280l174 285h204l174 -285h-124l-152 150l-152 -150h-124zM343 1623h-88q40 232 179 232q34 0 61 -8l110 -33q20 -6 48 -6q60 0 76 75h88q-36 -237 -187 -237q-23 0 -51 8l-121 35q-21 6 -33 6q-66 0 -82 -72z" />
    <glyph glyph-name="glyph266" horiz-adv-x="993" 
d="M225 1565h114q21 -123 160 -123q144 0 160 123h114q-27 -285 -274 -285q-249 0 -274 285zM381 1585l174 285h256l-305 -285h-125z" />
    <glyph glyph-name="glyph267" horiz-adv-x="993" 
d="M225 1565h114q21 -123 160 -123q144 0 160 123h114q-27 -285 -274 -285q-249 0 -274 285zM625 1585h-125l-305 285h256z" />
    <glyph glyph-name="glyph268" horiz-adv-x="993" 
d="M225 1565h114q21 -123 160 -123q144 0 160 123h114q-27 -285 -274 -285q-249 0 -274 285zM453 1739h-89v11q0 64 29 104q39 53 102 53q74 0 119 -52q31 -35 31 -99q0 -40 -18 -68q-32 -35 -76 -107q-5 -16 -5 -36v-11h-106v21q0 57 34 101l15 18q38 44 38 86q0 47 -35 47
q-39 0 -39 -57v-11z" />
    <glyph glyph-name="glyph269" horiz-adv-x="993" 
d="M225 1565h114q21 -123 160 -123q144 0 160 123h114q-27 -285 -274 -285q-249 0 -274 285zM343 1623h-88q40 232 179 232q34 0 61 -8l110 -33q20 -6 48 -6q60 0 76 75h88q-36 -237 -187 -237q-23 0 -51 8l-121 35q-21 6 -33 6q-66 0 -82 -72z" />
    <glyph glyph-name="u20AB" unicode="&#x20ab;" horiz-adv-x="637" 
d="M195 859q0 -152 3 -172q15 -121 86 -121q73 0 92 84q8 33 8 142q0 174 -2 194q-18 137 -98 137q-68 0 -85 -108q-4 -28 -4 -156zM389 516q-48 -110 -170 -110q-147 0 -195 157q-25 84 -25 279q0 200 23 282q46 162 193 162q114 0 163 -93v155h-165v103h165v89h195v-89
h114v-103h-114v-920h-184v88zM23 328h537v-102h-537v102z" />
    <glyph glyph-name="glyph271" unicode="&#x102;" horiz-adv-x="1120" 
d="M430 618h244l-123 646zM18 0l347 1540h385l350 -1540h-309l-76 387h-330l-74 -387h-293zM287 1902h114q21 -123 160 -123q144 0 160 123h114q-27 -285 -274 -285q-249 0 -274 285z" />
    <glyph glyph-name="glyph272" unicode="&#x103;" horiz-adv-x="993" 
d="M627 606q-123 -62 -172 -105q-86 -75 -86 -173q0 -150 118 -150q140 0 140 244v184zM664 0q-16 23 -29 112q-86 -143 -264 -143q-141 0 -215 100q-64 89 -64 236q0 159 87 252q64 70 233 145l54 24q157 67 157 157q0 114 -119 114q-142 0 -142 -161v-23h-260
q0 200 102 290q96 83 300 83q208 0 293 -79q88 -83 88 -288v-653q0 -94 39 -166h-260zM225 1565h114q21 -123 160 -123q144 0 160 123h114q-27 -285 -274 -285q-249 0 -274 285z" />
    <glyph glyph-name="glyph273" unicode="&#x128;" horiz-adv-x="549" 
d="M131 0v1540h287v-1540h-287zM95 1681h-88q40 232 179 232q34 0 61 -8l110 -33q20 -6 48 -6q60 0 76 75h88q-36 -237 -187 -237q-23 0 -51 8l-121 35q-21 6 -33 6q-66 0 -82 -72z" />
    <glyph glyph-name="glyph274" unicode="&#x129;" horiz-adv-x="496" 
d="M115 0v1157h266v-1157h-266zM92 1292h-88q40 232 179 232q34 0 61 -8l110 -33q20 -6 48 -6q60 0 76 75h88q-36 -237 -187 -237q-23 0 -51 8l-121 35q-21 6 -33 6q-66 0 -82 -72z" />
    <glyph glyph-name="glyph275" unicode="&#x168;" horiz-adv-x="1223" 
d="M131 1540h287v-1038q0 -150 27 -211q43 -94 171 -94t169 97q26 60 26 212v1034h283v-1063q0 -252 -76 -352q-124 -162 -406 -162q-270 0 -379 123q-102 115 -102 391v1063zM409 1681h-88q40 232 179 232q34 0 61 -8l110 -33q20 -6 48 -6q60 0 76 75h88
q-36 -237 -187 -237q-23 0 -51 8l-121 35q-21 6 -33 6q-66 0 -82 -72z" />
    <glyph glyph-name="glyph276" unicode="&#x169;" horiz-adv-x="991" 
d="M877 1157v-1157h-263v115q-83 -146 -243 -146q-258 0 -258 279v909h258v-756q0 -93 14 -133q25 -69 100 -69q81 0 108 75q15 43 15 144v739h269zM296 1292h-88q40 232 179 232q34 0 61 -8l110 -33q20 -6 48 -6q60 0 76 75h88q-36 -237 -187 -237q-23 0 -51 8l-121 35
q-21 6 -33 6q-66 0 -82 -72z" />
    <glyph glyph-name="glyph277" unicode="&#x1a0;" horiz-adv-x="1202" 
d="M393 770q0 -301 -2 -222q4 -156 44 -242q52 -113 167 -113q114 0 165 114q39 85 43 242q-3 -109 -3 221q0 319 3 222q-5 157 -43 243q-52 115 -167 115t-167 -115q-38 -86 -43 -243q3 97 3 -222zM1070 1205q95 32 95 155v16h-127v260h248v-274q0 -95 -55 -162t-147 -91
q16 -136 16 -339q0 -465 -94 -612q-71 -110 -174 -156q-89 -39 -232 -39t-232 39q-101 45 -173 156q-95 147 -95 612t95 612q72 111 173 156q89 39 232 39t232 -39q103 -46 174 -156q41 -64 64 -177z" />
    <glyph glyph-name="glyph278" unicode="&#x1a1;" horiz-adv-x="979" 
d="M356 563q0 -215 3 -234q21 -155 128 -155t131 133q5 29 5 217v113q0 176 -7 212q-24 132 -127 132q-100 0 -125 -116q-8 -37 -8 -195v-107zM858 944q74 39 74 145v16h-127v260h248v-274q0 -105 -68 -176q-43 -46 -106 -68q18 -113 18 -269q0 -300 -59 -424
q-89 -185 -349 -185t-348 186q-59 124 -59 423t59 424q88 186 348 186q228 0 318 -130q31 -44 51 -114z" />
    <glyph glyph-name="glyph279" unicode="&#x1af;" horiz-adv-x="1223" 
d="M1038 1540v96h248v-274q0 -194 -192 -251v-634q0 -252 -76 -352q-124 -162 -406 -162q-270 0 -379 123q-102 115 -102 391v1063h287v-1038q0 -150 27 -211q43 -94 171 -94t169 97q26 60 26 212v1034h227zM1094 1216q71 40 71 144v16h-71v-160z" />
    <glyph glyph-name="glyph280" unicode="&#x1b0;" horiz-adv-x="991" 
d="M805 1157v208h248v-274q0 -105 -68 -176q-44 -46 -108 -69v-846h-263v115q-83 -146 -243 -146q-258 0 -258 279v909h258v-756q0 -93 14 -133q25 -69 100 -69q81 0 108 75q15 43 15 144v739h197zM877 956q55 44 55 133v16h-55v-149z" />
    <glyph glyph-name="glyph281" unicode="&#x1ea0;" horiz-adv-x="1120" 
d="M430 618h244l-123 646zM18 0l347 1540h385l350 -1540h-309l-76 387h-330l-74 -387h-293zM431 -411v276h258v-276h-258z" />
    <glyph glyph-name="glyph282" unicode="&#x1ea1;" horiz-adv-x="993" 
d="M627 606q-123 -62 -172 -105q-86 -75 -86 -173q0 -150 118 -150q140 0 140 244v184zM664 0q-16 23 -29 112q-86 -143 -264 -143q-141 0 -215 100q-64 89 -64 236q0 159 87 252q64 70 233 145l54 24q157 67 157 157q0 114 -119 114q-142 0 -142 -161v-23h-260
q0 200 102 290q96 83 300 83q208 0 293 -79q88 -83 88 -288v-653q0 -94 39 -166h-260zM371 -411v276h258v-276h-258z" />
    <glyph glyph-name="glyph283" unicode="&#x1ea2;" horiz-adv-x="1120" 
d="M430 618h244l-123 646zM18 0l347 1540h385l350 -1540h-309l-76 387h-330l-74 -387h-293zM524 1858h-89v11q0 64 29 104q39 53 102 53q74 0 119 -52q31 -35 31 -99q0 -40 -18 -68q-32 -35 -76 -107q-5 -16 -5 -36v-11h-106v21q0 57 34 101l15 18q38 44 38 86q0 47 -35 47
q-39 0 -39 -57v-11z" />
    <glyph glyph-name="glyph284" unicode="&#x1ea3;" horiz-adv-x="993" 
d="M627 606q-123 -62 -172 -105q-86 -75 -86 -173q0 -150 118 -150q140 0 140 244v184zM664 0q-16 23 -29 112q-86 -143 -264 -143q-141 0 -215 100q-64 89 -64 236q0 159 87 252q64 70 233 145l54 24q157 67 157 157q0 114 -119 114q-142 0 -142 -161v-23h-260
q0 200 102 290q96 83 300 83q208 0 293 -79q88 -83 88 -288v-653q0 -94 39 -166h-260zM457 1471h-89v11q0 64 29 104q39 53 102 53q74 0 119 -52q31 -35 31 -99q0 -40 -18 -68q-32 -35 -76 -107q-5 -16 -5 -36v-11h-106v21q0 57 34 101l15 18q38 44 38 86q0 47 -35 47
q-39 0 -39 -57v-11z" />
    <glyph glyph-name="glyph285" unicode="&#x1ea4;" horiz-adv-x="1120" 
d="M430 618h244l-123 646zM18 0l347 1540h385l350 -1540h-309l-76 387h-330l-74 -387h-293zM285 1618l174 285h204l174 -285h-124l-152 150l-152 -150h-124zM263 1922l174 285h256l-305 -285h-125z" />
    <glyph glyph-name="glyph286" unicode="&#x1ea5;" horiz-adv-x="993" 
d="M627 606q-123 -62 -172 -105q-86 -75 -86 -173q0 -150 118 -150q140 0 140 244v184zM664 0q-16 23 -29 112q-86 -143 -264 -143q-141 0 -215 100q-64 89 -64 236q0 159 87 252q64 70 233 145l54 24q157 67 157 157q0 114 -119 114q-142 0 -142 -161v-23h-260
q0 200 102 290q96 83 300 83q208 0 293 -79q88 -83 88 -288v-653q0 -94 39 -166h-260zM222 1280l174 285h204l174 -285h-124l-152 150l-152 -150h-124zM200 1585l174 285h256l-305 -285h-125z" />
    <glyph glyph-name="glyph287" unicode="&#x1ea6;" horiz-adv-x="1120" 
d="M430 618h244l-123 646zM18 0l347 1540h385l350 -1540h-309l-76 387h-330l-74 -387h-293zM285 1618l174 285h204l174 -285h-124l-152 150l-152 -150h-124zM865 1922h-125l-305 285h256z" />
    <glyph glyph-name="glyph288" unicode="&#x1ea7;" horiz-adv-x="993" 
d="M627 606q-123 -62 -172 -105q-86 -75 -86 -173q0 -150 118 -150q140 0 140 244v184zM664 0q-16 23 -29 112q-86 -143 -264 -143q-141 0 -215 100q-64 89 -64 236q0 159 87 252q64 70 233 145l54 24q157 67 157 157q0 114 -119 114q-142 0 -142 -161v-23h-260
q0 200 102 290q96 83 300 83q208 0 293 -79q88 -83 88 -288v-653q0 -94 39 -166h-260zM222 1280l174 285h204l174 -285h-124l-152 150l-152 -150h-124zM803 1585h-125l-305 285h256z" />
    <glyph glyph-name="glyph289" unicode="&#x1ea8;" horiz-adv-x="1120" 
d="M430 618h244l-123 646zM18 0l347 1540h385l350 -1540h-309l-76 387h-330l-74 -387h-293zM285 1618l174 285h204l174 -285h-124l-152 150l-152 -150h-124zM740 2077h-89v11q0 64 29 104q39 53 102 53q74 0 119 -52q31 -35 31 -99q0 -40 -18 -68q-32 -35 -76 -107
q-5 -16 -5 -36v-11h-106v21q0 57 34 101l15 18q38 44 38 86q0 47 -35 47q-39 0 -39 -57v-11z" />
    <glyph glyph-name="glyph290" unicode="&#x1ea9;" horiz-adv-x="993" 
d="M627 606q-123 -62 -172 -105q-86 -75 -86 -173q0 -150 118 -150q140 0 140 244v184zM664 0q-16 23 -29 112q-86 -143 -264 -143q-141 0 -215 100q-64 89 -64 236q0 159 87 252q64 70 233 145l54 24q157 67 157 157q0 114 -119 114q-142 0 -142 -161v-23h-260
q0 200 102 290q96 83 300 83q208 0 293 -79q88 -83 88 -288v-653q0 -94 39 -166h-260zM222 1280l174 285h204l174 -285h-124l-152 150l-152 -150h-124zM677 1739h-89v11q0 64 29 104q39 53 102 53q74 0 119 -52q31 -35 31 -99q0 -40 -18 -68q-32 -35 -76 -107q-5 -16 -5 -36
v-11h-106v21q0 57 34 101l15 18q38 44 38 86q0 47 -35 47q-39 0 -39 -57v-11z" />
    <glyph glyph-name="glyph291" unicode="&#x1eaa;" horiz-adv-x="1120" 
d="M430 618h244l-123 646zM18 0l347 1540h385l350 -1540h-309l-76 387h-330l-74 -387h-293zM285 1618l174 285h204l174 -285h-124l-152 150l-152 -150h-124zM406 1961h-88q40 232 179 232q34 0 61 -8l110 -33q20 -6 48 -6q60 0 76 75h88q-36 -237 -187 -237q-23 0 -51 8
l-121 35q-21 6 -33 6q-66 0 -82 -72z" />
    <glyph glyph-name="glyph292" unicode="&#x1eab;" horiz-adv-x="993" 
d="M627 606q-123 -62 -172 -105q-86 -75 -86 -173q0 -150 118 -150q140 0 140 244v184zM664 0q-16 23 -29 112q-86 -143 -264 -143q-141 0 -215 100q-64 89 -64 236q0 159 87 252q64 70 233 145l54 24q157 67 157 157q0 114 -119 114q-142 0 -142 -161v-23h-260
q0 200 102 290q96 83 300 83q208 0 293 -79q88 -83 88 -288v-653q0 -94 39 -166h-260zM222 1280l174 285h204l174 -285h-124l-152 150l-152 -150h-124zM343 1623h-88q40 232 179 232q34 0 61 -8l110 -33q20 -6 48 -6q60 0 76 75h88q-36 -237 -187 -237q-23 0 -51 8l-121 35
q-21 6 -33 6q-66 0 -82 -72z" />
    <glyph glyph-name="glyph293" unicode="&#x1eac;" horiz-adv-x="1120" 
d="M430 618h244l-123 646zM18 0l347 1540h385l350 -1540h-309l-76 387h-330l-74 -387h-293zM285 1618l174 285h204l174 -285h-124l-152 150l-152 -150h-124zM431 -411v276h258v-276h-258z" />
    <glyph glyph-name="glyph294" unicode="&#x1ead;" horiz-adv-x="993" 
d="M627 606q-123 -62 -172 -105q-86 -75 -86 -173q0 -150 118 -150q140 0 140 244v184zM664 0q-16 23 -29 112q-86 -143 -264 -143q-141 0 -215 100q-64 89 -64 236q0 159 87 252q64 70 233 145l54 24q157 67 157 157q0 114 -119 114q-142 0 -142 -161v-23h-260
q0 200 102 290q96 83 300 83q208 0 293 -79q88 -83 88 -288v-653q0 -94 39 -166h-260zM222 1280l174 285h204l174 -285h-124l-152 150l-152 -150h-124zM371 -411v276h258v-276h-258z" />
    <glyph glyph-name="glyph295" unicode="&#x1eae;" horiz-adv-x="1120" 
d="M430 618h244l-123 646zM18 0l347 1540h385l350 -1540h-309l-76 387h-330l-74 -387h-293zM287 1902h114q21 -123 160 -123q144 0 160 123h114q-27 -285 -274 -285q-249 0 -274 285zM442 1921l174 285h256l-305 -285h-125z" />
    <glyph glyph-name="glyph296" unicode="&#x1eaf;" horiz-adv-x="993" 
d="M627 606q-123 -62 -172 -105q-86 -75 -86 -173q0 -150 118 -150q140 0 140 244v184zM664 0q-16 23 -29 112q-86 -143 -264 -143q-141 0 -215 100q-64 89 -64 236q0 159 87 252q64 70 233 145l54 24q157 67 157 157q0 114 -119 114q-142 0 -142 -161v-23h-260
q0 200 102 290q96 83 300 83q208 0 293 -79q88 -83 88 -288v-653q0 -94 39 -166h-260zM225 1565h114q21 -123 160 -123q144 0 160 123h114q-27 -285 -274 -285q-249 0 -274 285zM381 1585l174 285h256l-305 -285h-125z" />
    <glyph glyph-name="glyph297" unicode="&#x1eb0;" horiz-adv-x="1120" 
d="M430 618h244l-123 646zM18 0l347 1540h385l350 -1540h-309l-76 387h-330l-74 -387h-293zM287 1902h114q21 -123 160 -123q144 0 160 123h114q-27 -285 -274 -285q-249 0 -274 285zM687 1921h-125l-305 285h256z" />
    <glyph glyph-name="glyph298" unicode="&#x1eb1;" horiz-adv-x="993" 
d="M627 606q-123 -62 -172 -105q-86 -75 -86 -173q0 -150 118 -150q140 0 140 244v184zM664 0q-16 23 -29 112q-86 -143 -264 -143q-141 0 -215 100q-64 89 -64 236q0 159 87 252q64 70 233 145l54 24q157 67 157 157q0 114 -119 114q-142 0 -142 -161v-23h-260
q0 200 102 290q96 83 300 83q208 0 293 -79q88 -83 88 -288v-653q0 -94 39 -166h-260zM225 1565h114q21 -123 160 -123q144 0 160 123h114q-27 -285 -274 -285q-249 0 -274 285zM625 1585h-125l-305 285h256z" />
    <glyph glyph-name="glyph299" unicode="&#x1eb2;" horiz-adv-x="1120" 
d="M430 618h244l-123 646zM18 0l347 1540h385l350 -1540h-309l-76 387h-330l-74 -387h-293zM287 1902h114q21 -123 160 -123q144 0 160 123h114q-27 -285 -274 -285q-249 0 -274 285zM516 2076h-89v11q0 64 29 104q39 53 102 53q74 0 119 -52q31 -35 31 -99q0 -40 -18 -68
q-32 -35 -76 -107q-5 -16 -5 -36v-11h-106v21q0 57 34 101l15 18q38 44 38 86q0 47 -35 47q-39 0 -39 -57v-11z" />
    <glyph glyph-name="glyph300" unicode="&#x1eb3;" horiz-adv-x="993" 
d="M627 606q-123 -62 -172 -105q-86 -75 -86 -173q0 -150 118 -150q140 0 140 244v184zM664 0q-16 23 -29 112q-86 -143 -264 -143q-141 0 -215 100q-64 89 -64 236q0 159 87 252q64 70 233 145l54 24q157 67 157 157q0 114 -119 114q-142 0 -142 -161v-23h-260
q0 200 102 290q96 83 300 83q208 0 293 -79q88 -83 88 -288v-653q0 -94 39 -166h-260zM225 1565h114q21 -123 160 -123q144 0 160 123h114q-27 -285 -274 -285q-249 0 -274 285zM453 1739h-89v11q0 64 29 104q39 53 102 53q74 0 119 -52q31 -35 31 -99q0 -40 -18 -68
q-32 -35 -76 -107q-5 -16 -5 -36v-11h-106v21q0 57 34 101l15 18q38 44 38 86q0 47 -35 47q-39 0 -39 -57v-11z" />
    <glyph glyph-name="glyph301" unicode="&#x1eb4;" horiz-adv-x="1120" 
d="M430 618h244l-123 646zM18 0l347 1540h385l350 -1540h-309l-76 387h-330l-74 -387h-293zM287 1902h114q21 -123 160 -123q144 0 160 123h114q-27 -285 -274 -285q-249 0 -274 285zM406 1960h-88q40 232 179 232q34 0 61 -8l110 -33q20 -6 48 -6q60 0 76 75h88
q-36 -237 -187 -237q-23 0 -51 8l-121 35q-21 6 -33 6q-66 0 -82 -72z" />
    <glyph glyph-name="glyph302" unicode="&#x1eb5;" horiz-adv-x="993" 
d="M627 606q-123 -62 -172 -105q-86 -75 -86 -173q0 -150 118 -150q140 0 140 244v184zM664 0q-16 23 -29 112q-86 -143 -264 -143q-141 0 -215 100q-64 89 -64 236q0 159 87 252q64 70 233 145l54 24q157 67 157 157q0 114 -119 114q-142 0 -142 -161v-23h-260
q0 200 102 290q96 83 300 83q208 0 293 -79q88 -83 88 -288v-653q0 -94 39 -166h-260zM225 1565h114q21 -123 160 -123q144 0 160 123h114q-27 -285 -274 -285q-249 0 -274 285zM343 1623h-88q40 232 179 232q34 0 61 -8l110 -33q20 -6 48 -6q60 0 76 75h88
q-36 -237 -187 -237q-23 0 -51 8l-121 35q-21 6 -33 6q-66 0 -82 -72z" />
    <glyph glyph-name="glyph303" unicode="&#x1eb6;" horiz-adv-x="1120" 
d="M430 618h244l-123 646zM18 0l347 1540h385l350 -1540h-309l-76 387h-330l-74 -387h-293zM287 1902h114q21 -123 160 -123q144 0 160 123h114q-27 -285 -274 -285q-249 0 -274 285zM431 -411v276h258v-276h-258z" />
    <glyph glyph-name="glyph304" unicode="&#x1eb7;" horiz-adv-x="993" 
d="M627 606q-123 -62 -172 -105q-86 -75 -86 -173q0 -150 118 -150q140 0 140 244v184zM664 0q-16 23 -29 112q-86 -143 -264 -143q-141 0 -215 100q-64 89 -64 236q0 159 87 252q64 70 233 145l54 24q157 67 157 157q0 114 -119 114q-142 0 -142 -161v-23h-260
q0 200 102 290q96 83 300 83q208 0 293 -79q88 -83 88 -288v-653q0 -94 39 -166h-260zM225 1565h114q21 -123 160 -123q144 0 160 123h114q-27 -285 -274 -285q-249 0 -274 285zM371 -411v276h258v-276h-258z" />
    <glyph glyph-name="glyph305" unicode="&#x1eb8;" horiz-adv-x="1014" 
d="M131 0v1540h791v-256h-506v-356h471v-244h-471v-424h518v-260h-803zM391 -411v276h258v-276h-258z" />
    <glyph glyph-name="glyph306" unicode="&#x1eb9;" horiz-adv-x="975" 
d="M358 725h260v49q0 100 -18 142q-28 67 -113 67q-71 0 -101 -46q-36 -57 -30 -163l1 -16q1 -17 1 -33zM627 397h252q0 -8 1 -22.5t1 -22.5q0 -200 -96 -291.5t-298 -91.5q-209 0 -301 111q-73 88 -93 257q-9 74 -9 279q0 165 9 235q18 142 79 216q100 121 322 121
q214 0 313 -131q80 -106 80 -428v-88h-526q-3 -19 -3 -74q0 -129 14 -184q29 -113 120 -113q135 0 135 227zM356 -411v276h258v-276h-258z" />
    <glyph glyph-name="glyph307" unicode="&#x1eba;" horiz-adv-x="1014" 
d="M131 0v1540h791v-256h-506v-356h471v-244h-471v-424h518v-260h-803zM484 1858h-89v11q0 64 29 104q39 53 102 53q74 0 119 -52q31 -35 31 -99q0 -40 -18 -68q-32 -35 -76 -107q-5 -16 -5 -36v-11h-106v21q0 57 34 101l15 18q38 44 38 86q0 47 -35 47q-39 0 -39 -57v-11z
" />
    <glyph glyph-name="glyph308" unicode="&#x1ebb;" horiz-adv-x="975" 
d="M358 725h260v49q0 100 -18 142q-28 67 -113 67q-71 0 -101 -46q-36 -57 -30 -163l1 -16q1 -17 1 -33zM627 397h252q0 -8 1 -22.5t1 -22.5q0 -200 -96 -291.5t-298 -91.5q-209 0 -301 111q-73 88 -93 257q-9 74 -9 279q0 165 9 235q18 142 79 216q100 121 322 121
q214 0 313 -131q80 -106 80 -428v-88h-526q-3 -19 -3 -74q0 -129 14 -184q29 -113 120 -113q135 0 135 227zM449 1471h-89v11q0 64 29 104q39 53 102 53q74 0 119 -52q31 -35 31 -99q0 -40 -18 -68q-32 -35 -76 -107q-5 -16 -5 -36v-11h-106v21q0 57 34 101l15 18
q38 44 38 86q0 47 -35 47q-39 0 -39 -57v-11z" />
    <glyph glyph-name="glyph309" unicode="&#x1ebc;" horiz-adv-x="1014" 
d="M131 0v1540h791v-256h-506v-356h471v-244h-471v-424h518v-260h-803zM346 1681h-88q40 232 179 232q34 0 61 -8l110 -33q20 -6 48 -6q60 0 76 75h88q-36 -237 -187 -237q-23 0 -51 8l-121 35q-21 6 -33 6q-66 0 -82 -72z" />
    <glyph glyph-name="glyph310" unicode="&#x1ebd;" horiz-adv-x="975" 
d="M358 725h260v49q0 100 -18 142q-28 67 -113 67q-71 0 -101 -46q-36 -57 -30 -163l1 -16q1 -17 1 -33zM627 397h252q0 -8 1 -22.5t1 -22.5q0 -200 -96 -291.5t-298 -91.5q-209 0 -301 111q-73 88 -93 257q-9 74 -9 279q0 165 9 235q18 142 79 216q100 121 322 121
q214 0 313 -131q80 -106 80 -428v-88h-526q-3 -19 -3 -74q0 -129 14 -184q29 -113 120 -113q135 0 135 227zM296 1292h-88q40 232 179 232q34 0 61 -8l110 -33q20 -6 48 -6q60 0 76 75h88q-36 -237 -187 -237q-23 0 -51 8l-121 35q-21 6 -33 6q-66 0 -82 -72z" />
    <glyph glyph-name="glyph311" unicode="&#x1ebe;" horiz-adv-x="1014" 
d="M131 0v1540h791v-256h-506v-356h471v-244h-471v-424h518v-260h-803zM243 1618l174 285h204l174 -285h-124l-152 150l-152 -150h-124zM220 1922l174 285h256l-305 -285h-125z" />
    <glyph glyph-name="glyph312" unicode="&#x1ebf;" horiz-adv-x="975" 
d="M358 725h260v49q0 100 -18 142q-28 67 -113 67q-71 0 -101 -46q-36 -57 -30 -163l1 -16q1 -17 1 -33zM627 397h252q0 -8 1 -22.5t1 -22.5q0 -200 -96 -291.5t-298 -91.5q-209 0 -301 111q-73 88 -93 257q-9 74 -9 279q0 165 9 235q18 142 79 216q100 121 322 121
q214 0 313 -131q80 -106 80 -428v-88h-526q-3 -19 -3 -74q0 -129 14 -184q29 -113 120 -113q135 0 135 227zM211 1280l174 285h204l174 -285h-124l-152 150l-152 -150h-124zM189 1585l174 285h256l-305 -285h-125z" />
    <glyph glyph-name="glyph313" unicode="&#x1ec0;" horiz-adv-x="1014" 
d="M131 0v1540h791v-256h-506v-356h471v-244h-471v-424h518v-260h-803zM243 1618l174 285h204l174 -285h-124l-152 150l-152 -150h-124zM823 1922h-125l-305 285h256z" />
    <glyph glyph-name="glyph314" unicode="&#x1ec1;" horiz-adv-x="975" 
d="M358 725h260v49q0 100 -18 142q-28 67 -113 67q-71 0 -101 -46q-36 -57 -30 -163l1 -16q1 -17 1 -33zM627 397h252q0 -8 1 -22.5t1 -22.5q0 -200 -96 -291.5t-298 -91.5q-209 0 -301 111q-73 88 -93 257q-9 74 -9 279q0 165 9 235q18 142 79 216q100 121 322 121
q214 0 313 -131q80 -106 80 -428v-88h-526q-3 -19 -3 -74q0 -129 14 -184q29 -113 120 -113q135 0 135 227zM211 1280l174 285h204l174 -285h-124l-152 150l-152 -150h-124zM792 1585h-125l-305 285h256z" />
    <glyph glyph-name="glyph315" unicode="&#x1ec2;" horiz-adv-x="1014" 
d="M131 0v1540h791v-256h-506v-356h471v-244h-471v-424h518v-260h-803zM243 1618l174 285h204l174 -285h-124l-152 150l-152 -150h-124zM697 2076h-89v11q0 64 29 104q39 53 102 53q74 0 119 -52q31 -35 31 -99q0 -40 -18 -68q-32 -35 -76 -107q-5 -16 -5 -36v-11h-106v21
q0 57 34 101l15 18q38 44 38 86q0 47 -35 47q-39 0 -39 -57v-11z" />
    <glyph glyph-name="glyph316" unicode="&#x1ec3;" horiz-adv-x="975" 
d="M358 725h260v49q0 100 -18 142q-28 67 -113 67q-71 0 -101 -46q-36 -57 -30 -163l1 -16q1 -17 1 -33zM627 397h252q0 -8 1 -22.5t1 -22.5q0 -200 -96 -291.5t-298 -91.5q-209 0 -301 111q-73 88 -93 257q-9 74 -9 279q0 165 9 235q18 142 79 216q100 121 322 121
q214 0 313 -131q80 -106 80 -428v-88h-526q-3 -19 -3 -74q0 -129 14 -184q29 -113 120 -113q135 0 135 227zM211 1280l174 285h204l174 -285h-124l-152 150l-152 -150h-124zM666 1739h-89v11q0 64 29 104q39 53 102 53q74 0 119 -52q31 -35 31 -99q0 -40 -18 -68
q-32 -35 -76 -107q-5 -16 -5 -36v-11h-106v21q0 57 34 101l15 18q38 44 38 86q0 47 -35 47q-39 0 -39 -57v-11z" />
    <glyph glyph-name="glyph317" unicode="&#x1ec4;" horiz-adv-x="1014" 
d="M131 0v1540h791v-256h-506v-356h471v-244h-471v-424h518v-260h-803zM243 1618l174 285h204l174 -285h-124l-152 150l-152 -150h-124zM363 1961h-88q40 232 179 232q34 0 61 -8l110 -33q20 -6 48 -6q60 0 76 75h88q-36 -237 -187 -237q-23 0 -51 8l-121 35q-21 6 -33 6
q-66 0 -82 -72z" />
    <glyph glyph-name="glyph318" unicode="&#x1ec5;" horiz-adv-x="975" 
d="M358 725h260v49q0 100 -18 142q-28 67 -113 67q-71 0 -101 -46q-36 -57 -30 -163l1 -16q1 -17 1 -33zM627 397h252q0 -8 1 -22.5t1 -22.5q0 -200 -96 -291.5t-298 -91.5q-209 0 -301 111q-73 88 -93 257q-9 74 -9 279q0 165 9 235q18 142 79 216q100 121 322 121
q214 0 313 -131q80 -106 80 -428v-88h-526q-3 -19 -3 -74q0 -129 14 -184q29 -113 120 -113q135 0 135 227zM211 1280l174 285h204l174 -285h-124l-152 150l-152 -150h-124zM332 1623h-88q40 232 179 232q34 0 61 -8l110 -33q20 -6 48 -6q60 0 76 75h88q-36 -237 -187 -237
q-23 0 -51 8l-121 35q-21 6 -33 6q-66 0 -82 -72z" />
    <glyph glyph-name="glyph319" unicode="&#x1ec6;" horiz-adv-x="1014" 
d="M131 0v1540h791v-256h-506v-356h471v-244h-471v-424h518v-260h-803zM243 1618l174 285h204l174 -285h-124l-152 150l-152 -150h-124zM391 -411v276h258v-276h-258z" />
    <glyph glyph-name="glyph320" unicode="&#x1ec7;" horiz-adv-x="975" 
d="M358 725h260v49q0 100 -18 142q-28 67 -113 67q-71 0 -101 -46q-36 -57 -30 -163l1 -16q1 -17 1 -33zM627 397h252q0 -8 1 -22.5t1 -22.5q0 -200 -96 -291.5t-298 -91.5q-209 0 -301 111q-73 88 -93 257q-9 74 -9 279q0 165 9 235q18 142 79 216q100 121 322 121
q214 0 313 -131q80 -106 80 -428v-88h-526q-3 -19 -3 -74q0 -129 14 -184q29 -113 120 -113q135 0 135 227zM211 1280l174 285h204l174 -285h-124l-152 150l-152 -150h-124zM356 -411v276h258v-276h-258z" />
    <glyph glyph-name="glyph321" unicode="&#x1ec8;" horiz-adv-x="549" 
d="M131 0v1540h287v-1540h-287zM230 1858h-89v11q0 64 29 104q39 53 102 53q74 0 119 -52q31 -35 31 -99q0 -40 -18 -68q-32 -35 -76 -107q-5 -16 -5 -36v-11h-106v21q0 57 34 101l15 18q38 44 38 86q0 47 -35 47q-39 0 -39 -57v-11z" />
    <glyph glyph-name="glyph322" unicode="&#x1ec9;" horiz-adv-x="496" 
d="M115 0v1157h266v-1157h-266zM204 1471h-89v11q0 64 29 104q39 53 102 53q74 0 119 -52q31 -35 31 -99q0 -40 -18 -68q-32 -35 -76 -107q-5 -16 -5 -36v-11h-106v21q0 57 34 101l15 18q38 44 38 86q0 47 -35 47q-39 0 -39 -57v-11z" />
    <glyph glyph-name="glyph323" unicode="&#x1eca;" horiz-adv-x="549" 
d="M131 0v1540h287v-1540h-287zM146 -411v276h258v-276h-258z" />
    <glyph glyph-name="glyph324" unicode="&#x1ecb;" horiz-adv-x="496" 
d="M115 1300v240h266v-240h-266zM115 0v1157h266v-1157h-266zM121 -411v276h258v-276h-258z" />
    <glyph glyph-name="glyph325" unicode="&#x1ecc;" horiz-adv-x="1202" 
d="M393 770q0 -301 -2 -222q4 -156 44 -242q52 -113 167 -113q114 0 165 114q39 85 43 242q-3 -109 -3 221q0 319 3 222q-5 157 -43 243q-52 115 -167 115t-167 -115q-38 -86 -43 -243q3 97 3 -222zM100 770q0 465 95 612q72 111 173 156q89 39 232 39t232 -39
q103 -46 174 -156q94 -145 94 -612q0 -465 -94 -612q-71 -110 -174 -156q-89 -39 -232 -39t-232 39q-101 45 -173 156q-95 147 -95 612zM478 -411v276h258v-276h-258z" />
    <glyph glyph-name="glyph326" unicode="&#x1ecd;" horiz-adv-x="979" 
d="M356 563q0 -215 3 -234q21 -155 128 -155t131 133q5 29 5 217v113q0 176 -7 212q-24 132 -127 132q-100 0 -125 -116q-8 -37 -8 -195v-107zM82 578q0 299 59 424q88 186 348 186t349 -186q59 -124 59 -424t-59 -424q-89 -185 -349 -185t-348 186q-59 124 -59 423z
M358 -411v276h258v-276h-258z" />
    <glyph glyph-name="glyph327" unicode="&#x1ece;" horiz-adv-x="1202" 
d="M393 770q0 -301 -2 -222q4 -156 44 -242q52 -113 167 -113q114 0 165 114q39 85 43 242q-3 -109 -3 221q0 319 3 222q-5 157 -43 243q-52 115 -167 115t-167 -115q-38 -86 -43 -243q3 97 3 -222zM100 770q0 465 95 612q72 111 173 156q89 39 232 39t232 -39
q103 -46 174 -156q94 -145 94 -612q0 -465 -94 -612q-71 -110 -174 -156q-89 -39 -232 -39t-232 39q-101 45 -173 156q-95 147 -95 612zM555 1858h-89v11q0 64 29 104q39 53 102 53q74 0 119 -52q31 -35 31 -99q0 -40 -18 -68q-32 -35 -76 -107q-5 -16 -5 -36v-11h-106v21
q0 57 34 101l15 18q38 44 38 86q0 47 -35 47q-39 0 -39 -57v-11z" />
    <glyph glyph-name="glyph328" unicode="&#x1ecf;" horiz-adv-x="979" 
d="M356 563q0 -215 3 -234q21 -155 128 -155t131 133q5 29 5 217v113q0 176 -7 212q-24 132 -127 132q-100 0 -125 -116q-8 -37 -8 -195v-107zM82 578q0 299 59 424q88 186 348 186t349 -186q59 -124 59 -424t-59 -424q-89 -185 -349 -185t-348 186q-59 124 -59 423z
M457 1471h-89v11q0 64 29 104q39 53 102 53q74 0 119 -52q31 -35 31 -99q0 -40 -18 -68q-32 -35 -76 -107q-5 -16 -5 -36v-11h-106v21q0 57 34 101l15 18q38 44 38 86q0 47 -35 47q-39 0 -39 -57v-11z" />
    <glyph glyph-name="glyph329" unicode="&#x1ed0;" horiz-adv-x="1202" 
d="M393 770q0 -301 -2 -222q4 -156 44 -242q52 -113 167 -113q114 0 165 114q39 85 43 242q-3 -109 -3 221q0 319 3 222q-5 157 -43 243q-52 115 -167 115t-167 -115q-38 -86 -43 -243q3 97 3 -222zM100 770q0 465 95 612q72 111 173 156q89 39 232 39t232 -39
q103 -46 174 -156q94 -145 94 -612q0 -465 -94 -612q-71 -110 -174 -156q-89 -39 -232 -39t-232 39q-101 45 -173 156q-95 147 -95 612zM326 1618l174 285h204l174 -285h-124l-152 150l-152 -150h-124zM305 1922l174 285h256l-305 -285h-125z" />
    <glyph glyph-name="glyph330" unicode="&#x1ed1;" horiz-adv-x="979" 
d="M356 563q0 -215 3 -234q21 -155 128 -155t131 133q5 29 5 217v113q0 176 -7 212q-24 132 -127 132q-100 0 -125 -116q-8 -37 -8 -195v-107zM82 578q0 299 59 424q88 186 348 186t349 -186q59 -124 59 -424t-59 -424q-89 -185 -349 -185t-348 186q-59 124 -59 423z
M213 1280l174 285h204l174 -285h-124l-152 150l-152 -150h-124zM191 1585l174 285h256l-305 -285h-125z" />
    <glyph glyph-name="glyph331" unicode="&#x1ed2;" horiz-adv-x="1202" 
d="M393 770q0 -301 -2 -222q4 -156 44 -242q52 -113 167 -113q114 0 165 114q39 85 43 242q-3 -109 -3 221q0 319 3 222q-5 157 -43 243q-52 115 -167 115t-167 -115q-38 -86 -43 -243q3 97 3 -222zM100 770q0 465 95 612q72 111 173 156q89 39 232 39t232 -39
q103 -46 174 -156q94 -145 94 -612q0 -465 -94 -612q-71 -110 -174 -156q-89 -39 -232 -39t-232 39q-101 45 -173 156q-95 147 -95 612zM326 1618l174 285h204l174 -285h-124l-152 150l-152 -150h-124zM907 1922h-125l-305 285h256z" />
    <glyph glyph-name="glyph332" unicode="&#x1ed3;" horiz-adv-x="979" 
d="M356 563q0 -215 3 -234q21 -155 128 -155t131 133q5 29 5 217v113q0 176 -7 212q-24 132 -127 132q-100 0 -125 -116q-8 -37 -8 -195v-107zM82 578q0 299 59 424q88 186 348 186t349 -186q59 -124 59 -424t-59 -424q-89 -185 -349 -185t-348 186q-59 124 -59 423z
M213 1280l174 285h204l174 -285h-124l-152 150l-152 -150h-124zM794 1585h-125l-305 285h256z" />
    <glyph glyph-name="glyph333" unicode="&#x1ed4;" horiz-adv-x="1202" 
d="M393 770q0 -301 -2 -222q4 -156 44 -242q52 -113 167 -113q114 0 165 114q39 85 43 242q-3 -109 -3 221q0 319 3 222q-5 157 -43 243q-52 115 -167 115t-167 -115q-38 -86 -43 -243q3 97 3 -222zM100 770q0 465 95 612q72 111 173 156q89 39 232 39t232 -39
q103 -46 174 -156q94 -145 94 -612q0 -465 -94 -612q-71 -110 -174 -156q-89 -39 -232 -39t-232 39q-101 45 -173 156q-95 147 -95 612zM326 1618l174 285h204l174 -285h-124l-152 150l-152 -150h-124zM781 2077h-89v11q0 64 29 104q39 53 102 53q74 0 119 -52
q31 -35 31 -99q0 -40 -18 -68q-32 -35 -76 -107q-5 -16 -5 -36v-11h-106v21q0 57 34 101l15 18q38 44 38 86q0 47 -35 47q-39 0 -39 -57v-11z" />
    <glyph glyph-name="glyph334" unicode="&#x1ed5;" horiz-adv-x="979" 
d="M356 563q0 -215 3 -234q21 -155 128 -155t131 133q5 29 5 217v113q0 176 -7 212q-24 132 -127 132q-100 0 -125 -116q-8 -37 -8 -195v-107zM82 578q0 299 59 424q88 186 348 186t349 -186q59 -124 59 -424t-59 -424q-89 -185 -349 -185t-348 186q-59 124 -59 423z
M213 1280l174 285h204l174 -285h-124l-152 150l-152 -150h-124zM668 1739h-89v11q0 64 29 104q39 53 102 53q74 0 119 -52q31 -35 31 -99q0 -40 -18 -68q-32 -35 -76 -107q-5 -16 -5 -36v-11h-106v21q0 57 34 101l15 18q38 44 38 86q0 47 -35 47q-39 0 -39 -57v-11z" />
    <glyph glyph-name="glyph335" unicode="&#x1ed6;" horiz-adv-x="1202" 
d="M393 770q0 -301 -2 -222q4 -156 44 -242q52 -113 167 -113q114 0 165 114q39 85 43 242q-3 -109 -3 221q0 319 3 222q-5 157 -43 243q-52 115 -167 115t-167 -115q-38 -86 -43 -243q3 97 3 -222zM100 770q0 465 95 612q72 111 173 156q89 39 232 39t232 -39
q103 -46 174 -156q94 -145 94 -612q0 -465 -94 -612q-71 -110 -174 -156q-89 -39 -232 -39t-232 39q-101 45 -173 156q-95 147 -95 612zM326 1618l174 285h204l174 -285h-124l-152 150l-152 -150h-124zM447 1960h-88q40 232 179 232q34 0 61 -8l110 -33q20 -6 48 -6
q60 0 76 75h88q-36 -237 -187 -237q-23 0 -51 8l-121 35q-21 6 -33 6q-66 0 -82 -72z" />
    <glyph glyph-name="glyph336" unicode="&#x1ed7;" horiz-adv-x="979" 
d="M356 563q0 -215 3 -234q21 -155 128 -155t131 133q5 29 5 217v113q0 176 -7 212q-24 132 -127 132q-100 0 -125 -116q-8 -37 -8 -195v-107zM82 578q0 299 59 424q88 186 348 186t349 -186q59 -124 59 -424t-59 -424q-89 -185 -349 -185t-348 186q-59 124 -59 423z
M213 1280l174 285h204l174 -285h-124l-152 150l-152 -150h-124zM334 1623h-88q40 232 179 232q34 0 61 -8l110 -33q20 -6 48 -6q60 0 76 75h88q-36 -237 -187 -237q-23 0 -51 8l-121 35q-21 6 -33 6q-66 0 -82 -72z" />
    <glyph glyph-name="glyph337" unicode="&#x1ed8;" horiz-adv-x="1202" 
d="M393 770q0 -301 -2 -222q4 -156 44 -242q52 -113 167 -113q114 0 165 114q39 85 43 242q-3 -109 -3 221q0 319 3 222q-5 157 -43 243q-52 115 -167 115t-167 -115q-38 -86 -43 -243q3 97 3 -222zM100 770q0 465 95 612q72 111 173 156q89 39 232 39t232 -39
q103 -46 174 -156q94 -145 94 -612q0 -465 -94 -612q-71 -110 -174 -156q-89 -39 -232 -39t-232 39q-101 45 -173 156q-95 147 -95 612zM326 1618l174 285h204l174 -285h-124l-152 150l-152 -150h-124zM478 -411v276h258v-276h-258z" />
    <glyph glyph-name="glyph338" unicode="&#x1ed9;" horiz-adv-x="979" 
d="M356 563q0 -215 3 -234q21 -155 128 -155t131 133q5 29 5 217v113q0 176 -7 212q-24 132 -127 132q-100 0 -125 -116q-8 -37 -8 -195v-107zM82 578q0 299 59 424q88 186 348 186t349 -186q59 -124 59 -424t-59 -424q-89 -185 -349 -185t-348 186q-59 124 -59 423z
M213 1280l174 285h204l174 -285h-124l-152 150l-152 -150h-124zM358 -411v276h258v-276h-258z" />
    <glyph glyph-name="glyph339" unicode="&#x1eda;" horiz-adv-x="1202" 
d="M393 770q0 -301 -2 -222q4 -156 44 -242q52 -113 167 -113q114 0 165 114q39 85 43 242q-3 -109 -3 221q0 319 3 222q-5 157 -43 243q-52 115 -167 115t-167 -115q-38 -86 -43 -243q3 97 3 -222zM1070 1205q95 32 95 155v16h-127v260h248v-274q0 -95 -55 -162t-147 -91
q16 -136 16 -339q0 -465 -94 -612q-71 -110 -174 -156q-89 -39 -232 -39t-232 39q-101 45 -173 156q-95 147 -95 612t95 612q72 111 173 156q89 39 232 39t232 -39q103 -46 174 -156q41 -64 64 -177zM461 1669l174 285h256l-305 -285h-125z" />
    <glyph glyph-name="glyph340" unicode="&#x1edb;" horiz-adv-x="979" 
d="M356 563q0 -215 3 -234q21 -155 128 -155t131 133q5 29 5 217v113q0 176 -7 212q-24 132 -127 132q-100 0 -125 -116q-8 -37 -8 -195v-107zM858 944q74 39 74 145v16h-127v260h248v-274q0 -105 -68 -176q-43 -46 -106 -68q18 -113 18 -269q0 -300 -59 -424
q-89 -185 -349 -185t-348 186q-59 124 -59 423t59 424q88 186 348 186q228 0 318 -130q31 -44 51 -114zM348 1280l174 285h256l-305 -285h-125z" />
    <glyph glyph-name="glyph341" unicode="&#x1edc;" horiz-adv-x="1202" 
d="M393 770q0 -301 -2 -222q4 -156 44 -242q52 -113 167 -113q114 0 165 114q39 85 43 242q-3 -109 -3 221q0 319 3 222q-5 157 -43 243q-52 115 -167 115t-167 -115q-38 -86 -43 -243q3 97 3 -222zM1070 1205q95 32 95 155v16h-127v260h248v-274q0 -95 -55 -162t-147 -91
q16 -136 16 -339q0 -465 -94 -612q-71 -110 -174 -156q-89 -39 -232 -39t-232 39q-101 45 -173 156q-95 147 -95 612t95 612q72 111 173 156q89 39 232 39t232 -39q103 -46 174 -156q41 -64 64 -177zM743 1669h-125l-305 285h256z" />
    <glyph glyph-name="glyph342" unicode="&#x1edd;" horiz-adv-x="979" 
d="M356 563q0 -215 3 -234q21 -155 128 -155t131 133q5 29 5 217v113q0 176 -7 212q-24 132 -127 132q-100 0 -125 -116q-8 -37 -8 -195v-107zM858 944q74 39 74 145v16h-127v260h248v-274q0 -105 -68 -176q-43 -46 -106 -68q18 -113 18 -269q0 -300 -59 -424
q-89 -185 -349 -185t-348 186q-59 124 -59 423t59 424q88 186 348 186q228 0 318 -130q31 -44 51 -114zM630 1280h-125l-305 285h256z" />
    <glyph glyph-name="glyph343" unicode="&#x1ede;" horiz-adv-x="1202" 
d="M393 770q0 -301 -2 -222q4 -156 44 -242q52 -113 167 -113q114 0 165 114q39 85 43 242q-3 -109 -3 221q0 319 3 222q-5 157 -43 243q-52 115 -167 115t-167 -115q-38 -86 -43 -243q3 97 3 -222zM1070 1205q95 32 95 155v16h-127v260h248v-274q0 -95 -55 -162t-147 -91
q16 -136 16 -339q0 -465 -94 -612q-71 -110 -174 -156q-89 -39 -232 -39t-232 39q-101 45 -173 156q-95 147 -95 612t95 612q72 111 173 156q89 39 232 39t232 -39q103 -46 174 -156q41 -64 64 -177zM555 1858h-89v11q0 64 29 104q39 53 102 53q74 0 119 -52q31 -35 31 -99
q0 -40 -18 -68q-32 -35 -76 -107q-5 -16 -5 -36v-11h-106v21q0 57 34 101l15 18q38 44 38 86q0 47 -35 47q-39 0 -39 -57v-11z" />
    <glyph glyph-name="glyph344" unicode="&#x1edf;" horiz-adv-x="979" 
d="M356 563q0 -215 3 -234q21 -155 128 -155t131 133q5 29 5 217v113q0 176 -7 212q-24 132 -127 132q-100 0 -125 -116q-8 -37 -8 -195v-107zM858 944q74 39 74 145v16h-127v260h248v-274q0 -105 -68 -176q-43 -46 -106 -68q18 -113 18 -269q0 -300 -59 -424
q-89 -185 -349 -185t-348 186q-59 124 -59 423t59 424q88 186 348 186q228 0 318 -130q31 -44 51 -114zM457 1471h-89v11q0 64 29 104q39 53 102 53q74 0 119 -52q31 -35 31 -99q0 -40 -18 -68q-32 -35 -76 -107q-5 -16 -5 -36v-11h-106v21q0 57 34 101l15 18q38 44 38 86
q0 47 -35 47q-39 0 -39 -57v-11z" />
    <glyph glyph-name="glyph345" unicode="&#x1ee0;" horiz-adv-x="1202" 
d="M393 770q0 -301 -2 -222q4 -156 44 -242q52 -113 167 -113q114 0 165 114q39 85 43 242q-3 -109 -3 221q0 319 3 222q-5 157 -43 243q-52 115 -167 115t-167 -115q-38 -86 -43 -243q3 97 3 -222zM1070 1205q95 32 95 155v16h-127v260h248v-274q0 -95 -55 -162t-147 -91
q16 -136 16 -339q0 -465 -94 -612q-71 -110 -174 -156q-89 -39 -232 -39t-232 39q-101 45 -173 156q-95 147 -95 612t95 612q72 111 173 156q89 39 232 39t232 -39q103 -46 174 -156q41 -64 64 -177zM409 1681h-88q40 232 179 232q34 0 61 -8l110 -33q20 -6 48 -6
q60 0 76 75h88q-36 -237 -187 -237q-23 0 -51 8l-121 35q-21 6 -33 6q-66 0 -82 -72z" />
    <glyph glyph-name="glyph346" unicode="&#x1ee1;" horiz-adv-x="979" 
d="M356 563q0 -215 3 -234q21 -155 128 -155t131 133q5 29 5 217v113q0 176 -7 212q-24 132 -127 132q-100 0 -125 -116q-8 -37 -8 -195v-107zM858 944q74 39 74 145v16h-127v260h248v-274q0 -105 -68 -176q-43 -46 -106 -68q18 -113 18 -269q0 -300 -59 -424
q-89 -185 -349 -185t-348 186q-59 124 -59 423t59 424q88 186 348 186q228 0 318 -130q31 -44 51 -114zM296 1292h-88q40 232 179 232q34 0 61 -8l110 -33q20 -6 48 -6q60 0 76 75h88q-36 -237 -187 -237q-23 0 -51 8l-121 35q-21 6 -33 6q-66 0 -82 -72z" />
    <glyph glyph-name="glyph347" unicode="&#x1ee2;" horiz-adv-x="1202" 
d="M393 770q0 -301 -2 -222q4 -156 44 -242q52 -113 167 -113q114 0 165 114q39 85 43 242q-3 -109 -3 221q0 319 3 222q-5 157 -43 243q-52 115 -167 115t-167 -115q-38 -86 -43 -243q3 97 3 -222zM1070 1205q95 32 95 155v16h-127v260h248v-274q0 -95 -55 -162t-147 -91
q16 -136 16 -339q0 -465 -94 -612q-71 -110 -174 -156q-89 -39 -232 -39t-232 39q-101 45 -173 156q-95 147 -95 612t95 612q72 111 173 156q89 39 232 39t232 -39q103 -46 174 -156q41 -64 64 -177zM478 -411v276h258v-276h-258z" />
    <glyph glyph-name="glyph348" unicode="&#x1ee3;" horiz-adv-x="979" 
d="M356 563q0 -215 3 -234q21 -155 128 -155t131 133q5 29 5 217v113q0 176 -7 212q-24 132 -127 132q-100 0 -125 -116q-8 -37 -8 -195v-107zM858 944q74 39 74 145v16h-127v260h248v-274q0 -105 -68 -176q-43 -46 -106 -68q18 -113 18 -269q0 -300 -59 -424
q-89 -185 -349 -185t-348 186q-59 124 -59 423t59 424q88 186 348 186q228 0 318 -130q31 -44 51 -114zM358 -411v276h258v-276h-258z" />
    <glyph glyph-name="glyph349" unicode="&#x1ee4;" horiz-adv-x="1223" 
d="M131 1540h287v-1038q0 -150 27 -211q43 -94 171 -94t169 97q26 60 26 212v1034h283v-1063q0 -252 -76 -352q-124 -162 -406 -162q-270 0 -379 123q-102 115 -102 391v1063zM489 -411v276h258v-276h-258z" />
    <glyph glyph-name="glyph350" unicode="&#x1ee5;" horiz-adv-x="991" 
d="M877 1157v-1157h-263v115q-83 -146 -243 -146q-258 0 -258 279v909h258v-756q0 -93 14 -133q25 -69 100 -69q81 0 108 75q15 43 15 144v739h269zM378 -411v276h258v-276h-258z" />
    <glyph glyph-name="glyph351" unicode="&#x1ee6;" horiz-adv-x="1223" 
d="M131 1540h287v-1038q0 -150 27 -211q43 -94 171 -94t169 97q26 60 26 212v1034h283v-1063q0 -252 -76 -352q-124 -162 -406 -162q-270 0 -379 123q-102 115 -102 391v1063zM574 1858h-89v11q0 64 29 104q39 53 102 53q74 0 119 -52q31 -35 31 -99q0 -40 -18 -68
q-32 -35 -76 -107q-5 -16 -5 -36v-11h-106v21q0 57 34 101l15 18q38 44 38 86q0 47 -35 47q-39 0 -39 -57v-11z" />
    <glyph glyph-name="glyph352" unicode="&#x1ee7;" horiz-adv-x="991" 
d="M877 1157v-1157h-263v115q-83 -146 -243 -146q-258 0 -258 279v909h258v-756q0 -93 14 -133q25 -69 100 -69q81 0 108 75q15 43 15 144v739h269zM447 1471h-89v11q0 64 29 104q39 53 102 53q74 0 119 -52q31 -35 31 -99q0 -40 -18 -68q-32 -35 -76 -107q-5 -16 -5 -36
v-11h-106v21q0 57 34 101l15 18q38 44 38 86q0 47 -35 47q-39 0 -39 -57v-11z" />
    <glyph glyph-name="glyph353" unicode="&#x1ee8;" horiz-adv-x="1223" 
d="M1038 1540v96h248v-274q0 -194 -192 -251v-634q0 -252 -76 -352q-124 -162 -406 -162q-270 0 -379 123q-102 115 -102 391v1063h287v-1038q0 -150 27 -211q43 -94 171 -94t169 97q26 60 26 212v1034h227zM1094 1216q71 40 71 144v16h-71v-160zM471 1669l174 285h256
l-305 -285h-125z" />
    <glyph glyph-name="glyph354" unicode="&#x1ee9;" horiz-adv-x="991" 
d="M805 1157v208h248v-274q0 -105 -68 -176q-44 -46 -108 -69v-846h-263v115q-83 -146 -243 -146q-258 0 -258 279v909h258v-756q0 -93 14 -133q25 -69 100 -69q81 0 108 75q15 43 15 144v739h197zM877 956q55 44 55 133v16h-55v-149zM355 1280l174 285h256l-305 -285h-125z
" />
    <glyph glyph-name="glyph355" unicode="&#x1eea;" horiz-adv-x="1223" 
d="M1038 1540v96h248v-274q0 -194 -192 -251v-634q0 -252 -76 -352q-124 -162 -406 -162q-270 0 -379 123q-102 115 -102 391v1063h287v-1038q0 -150 27 -211q43 -94 171 -94t169 97q26 60 26 212v1034h227zM1094 1216q71 40 71 144v16h-71v-160zM753 1669h-125l-305 285
h256z" />
    <glyph glyph-name="glyph356" unicode="&#x1eeb;" horiz-adv-x="991" 
d="M805 1157v208h248v-274q0 -105 -68 -176q-44 -46 -108 -69v-846h-263v115q-83 -146 -243 -146q-258 0 -258 279v909h258v-756q0 -93 14 -133q25 -69 100 -69q81 0 108 75q15 43 15 144v739h197zM877 956q55 44 55 133v16h-55v-149zM637 1280h-125l-305 285h256z" />
    <glyph glyph-name="glyph357" unicode="&#x1eec;" horiz-adv-x="1223" 
d="M1038 1540v96h248v-274q0 -194 -192 -251v-634q0 -252 -76 -352q-124 -162 -406 -162q-270 0 -379 123q-102 115 -102 391v1063h287v-1038q0 -150 27 -211q43 -94 171 -94t169 97q26 60 26 212v1034h227zM1094 1216q71 40 71 144v16h-71v-160zM574 1858h-89v11
q0 64 29 104q39 53 102 53q74 0 119 -52q31 -35 31 -99q0 -40 -18 -68q-32 -35 -76 -107q-5 -16 -5 -36v-11h-106v21q0 57 34 101l15 18q38 44 38 86q0 47 -35 47q-39 0 -39 -57v-11z" />
    <glyph glyph-name="glyph358" unicode="&#x1eed;" horiz-adv-x="991" 
d="M805 1157v208h248v-274q0 -105 -68 -176q-44 -46 -108 -69v-846h-263v115q-83 -146 -243 -146q-258 0 -258 279v909h258v-756q0 -93 14 -133q25 -69 100 -69q81 0 108 75q15 43 15 144v739h197zM877 956q55 44 55 133v16h-55v-149zM447 1471h-89v11q0 64 29 104
q39 53 102 53q74 0 119 -52q31 -35 31 -99q0 -40 -18 -68q-32 -35 -76 -107q-5 -16 -5 -36v-11h-106v21q0 57 34 101l15 18q38 44 38 86q0 47 -35 47q-39 0 -39 -57v-11z" />
    <glyph glyph-name="glyph359" unicode="&#x1eee;" horiz-adv-x="1223" 
d="M1038 1540v96h248v-274q0 -194 -192 -251v-634q0 -252 -76 -352q-124 -162 -406 -162q-270 0 -379 123q-102 115 -102 391v1063h287v-1038q0 -150 27 -211q43 -94 171 -94t169 97q26 60 26 212v1034h227zM1094 1216q71 40 71 144v16h-71v-160zM409 1681h-88
q40 232 179 232q34 0 61 -8l110 -33q20 -6 48 -6q60 0 76 75h88q-36 -237 -187 -237q-23 0 -51 8l-121 35q-21 6 -33 6q-66 0 -82 -72z" />
    <glyph glyph-name="glyph360" unicode="&#x1eef;" horiz-adv-x="991" 
d="M805 1157v208h248v-274q0 -105 -68 -176q-44 -46 -108 -69v-846h-263v115q-83 -146 -243 -146q-258 0 -258 279v909h258v-756q0 -93 14 -133q25 -69 100 -69q81 0 108 75q15 43 15 144v739h197zM877 956q55 44 55 133v16h-55v-149zM296 1292h-88q40 232 179 232
q34 0 61 -8l110 -33q20 -6 48 -6q60 0 76 75h88q-36 -237 -187 -237q-23 0 -51 8l-121 35q-21 6 -33 6q-66 0 -82 -72z" />
    <glyph glyph-name="glyph361" unicode="&#x1ef0;" horiz-adv-x="1223" 
d="M1038 1540v96h248v-274q0 -194 -192 -251v-634q0 -252 -76 -352q-124 -162 -406 -162q-270 0 -379 123q-102 115 -102 391v1063h287v-1038q0 -150 27 -211q43 -94 171 -94t169 97q26 60 26 212v1034h227zM1094 1216q71 40 71 144v16h-71v-160zM489 -411v276h258v-276
h-258z" />
    <glyph glyph-name="glyph362" unicode="&#x1ef1;" horiz-adv-x="991" 
d="M805 1157v208h248v-274q0 -105 -68 -176q-44 -46 -108 -69v-846h-263v115q-83 -146 -243 -146q-258 0 -258 279v909h258v-756q0 -93 14 -133q25 -69 100 -69q81 0 108 75q15 43 15 144v739h197zM877 956q55 44 55 133v16h-55v-149zM378 -411v276h258v-276h-258z" />
    <glyph glyph-name="glyph363" unicode="&#x1ef2;" horiz-adv-x="1126" 
d="M422 0v653l-404 887h318l233 -579l230 579h309l-397 -887v-653h-289zM743 1669h-125l-305 285h256z" />
    <glyph glyph-name="glyph364" unicode="&#x1ef3;" horiz-adv-x="909" 
d="M176 -379v200q7 0 21 -1h22q109 0 109 78q0 22 -11 66l-297 1193h283l160 -835l155 835h271l-301 -1266q-37 -155 -98 -213q-69 -65 -220 -65q-44 0 -94 8zM651 1280h-125l-305 285h256z" />
    <glyph glyph-name="glyph365" unicode="&#x1ef4;" horiz-adv-x="1126" 
d="M422 0v653l-404 887h318l233 -579l230 579h309l-397 -887v-653h-289zM438 -411v276h258v-276h-258z" />
    <glyph glyph-name="glyph366" unicode="&#x1ef5;" horiz-adv-x="909" 
d="M176 -379v200q7 0 21 -1h22q109 0 109 78q0 22 -11 66l-297 1193h283l160 -835l155 835h271l-301 -1266q-37 -155 -98 -213q-69 -65 -220 -65q-44 0 -94 8zM609 -411v276h258v-276h-258z" />
    <glyph glyph-name="glyph367" unicode="&#x1ef6;" horiz-adv-x="1126" 
d="M422 0v653l-404 887h318l233 -579l230 579h309l-397 -887v-653h-289zM526 1858h-89v11q0 64 29 104q39 53 102 53q74 0 119 -52q31 -35 31 -99q0 -40 -18 -68q-32 -35 -76 -107q-5 -16 -5 -36v-11h-106v21q0 57 34 101l15 18q38 44 38 86q0 47 -35 47q-39 0 -39 -57v-11z
" />
    <glyph glyph-name="glyph368" unicode="&#x1ef7;" horiz-adv-x="909" 
d="M176 -379v200q7 0 21 -1h22q109 0 109 78q0 22 -11 66l-297 1193h283l160 -835l155 835h271l-301 -1266q-37 -155 -98 -213q-69 -65 -220 -65q-44 0 -94 8zM427 1471h-89v11q0 64 29 104q39 53 102 53q74 0 119 -52q31 -35 31 -99q0 -40 -18 -68q-32 -35 -76 -107
q-5 -16 -5 -36v-11h-106v21q0 57 34 101l15 18q38 44 38 86q0 47 -35 47q-39 0 -39 -57v-11z" />
    <glyph glyph-name="glyph369" unicode="&#x1ef8;" horiz-adv-x="1126" 
d="M422 0v653l-404 887h318l233 -579l230 579h309l-397 -887v-653h-289zM409 1681h-88q40 232 179 232q34 0 61 -8l110 -33q20 -6 48 -6q60 0 76 75h88q-36 -237 -187 -237q-23 0 -51 8l-121 35q-21 6 -33 6q-66 0 -82 -72z" />
    <glyph glyph-name="glyph370" unicode="&#x1ef9;" horiz-adv-x="909" 
d="M176 -379v200q7 0 21 -1h22q109 0 109 78q0 22 -11 66l-297 1193h283l160 -835l155 835h271l-301 -1266q-37 -155 -98 -213q-69 -65 -220 -65q-44 0 -94 8zM296 1292h-88q40 232 179 232q34 0 61 -8l110 -33q20 -6 48 -6q60 0 76 75h88q-36 -237 -187 -237q-23 0 -51 8
l-121 35q-21 6 -33 6q-66 0 -82 -72z" />
    </font>
</defs>
</svg>
